<?xml version="1.0" encoding="UTF-8"?>
<svg id="Layer_1" data-name="Layer 1" xmlns="http://www.w3.org/2000/svg" xmlns:xlink="http://www.w3.org/1999/xlink" viewBox="0 0 1529.85 1529.85">
  <defs>
    <style>
      .cls-1 {
        fill: url(#linear-gradient-8);
      }

      .cls-2 {
        fill: url(#linear-gradient-7);
      }

      .cls-3 {
        fill: url(#linear-gradient-5);
      }

      .cls-4 {
        fill: url(#linear-gradient-6);
      }

      .cls-5 {
        fill: url(#linear-gradient-9);
      }

      .cls-6 {
        fill: url(#linear-gradient-4);
      }

      .cls-7 {
        fill: url(#linear-gradient-3);
      }

      .cls-8 {
        fill: url(#linear-gradient-2);
      }

      .cls-9 {
        fill: url(#linear-gradient);
      }

      .cls-10 {
        fill: url(#linear-gradient-40);
      }

      .cls-11 {
        fill: url(#linear-gradient-41);
      }

      .cls-12 {
        fill: url(#linear-gradient-10);
      }

      .cls-13 {
        fill: url(#linear-gradient-11);
      }

      .cls-14 {
        fill: url(#linear-gradient-12);
      }

      .cls-15 {
        fill: url(#linear-gradient-13);
      }

      .cls-16 {
        fill: url(#linear-gradient-19);
      }

      .cls-17 {
        fill: url(#linear-gradient-14);
      }

      .cls-18 {
        fill: url(#linear-gradient-21);
      }

      .cls-19 {
        fill: url(#linear-gradient-20);
      }

      .cls-20 {
        fill: url(#linear-gradient-22);
      }

      .cls-21 {
        fill: url(#linear-gradient-23);
      }

      .cls-22 {
        fill: url(#linear-gradient-28);
      }

      .cls-23 {
        fill: url(#linear-gradient-25);
      }

      .cls-24 {
        fill: url(#linear-gradient-32);
      }

      .cls-25 {
        fill: url(#linear-gradient-31);
      }

      .cls-26 {
        fill: url(#linear-gradient-33);
      }

      .cls-27 {
        fill: url(#linear-gradient-30);
      }

      .cls-28 {
        fill: url(#linear-gradient-15);
      }

      .cls-29 {
        fill: url(#linear-gradient-16);
      }

      .cls-30 {
        fill: url(#linear-gradient-17);
      }

      .cls-31 {
        fill: url(#linear-gradient-18);
      }

      .cls-32 {
        fill: url(#linear-gradient-35);
      }

      .cls-33 {
        fill: url(#linear-gradient-34);
      }

      .cls-34 {
        fill: url(#linear-gradient-36);
      }

      .cls-35 {
        fill: url(#linear-gradient-38);
      }

      .cls-36 {
        fill: url(#linear-gradient-27);
      }

      .cls-37 {
        fill: url(#linear-gradient-24);
      }

      .cls-38 {
        fill: url(#linear-gradient-26);
      }

      .cls-39 {
        fill: url(#linear-gradient-29);
      }

      .cls-40 {
        fill: url(#linear-gradient-37);
      }

      .cls-41 {
        fill: url(#linear-gradient-39);
      }
    </style>
    <linearGradient id="linear-gradient" x1="-154.04" y1="823.29" x2="1419.49" y2="725.21" gradientUnits="userSpaceOnUse">
      <stop offset="0" stop-color="#fe1b0c"/>
      <stop offset=".25" stop-color="#f61d14"/>
      <stop offset=".8" stop-color="#1252eb"/>
      <stop offset="1" stop-color="#0156fb"/>
    </linearGradient>
    <linearGradient id="linear-gradient-2" x1="-149.71" y1="892.86" x2="1423.83" y2="794.78" xlink:href="#linear-gradient"/>
    <linearGradient id="linear-gradient-3" x1="-158.3" y1="755.02" x2="1415.24" y2="656.94" xlink:href="#linear-gradient"/>
    <linearGradient id="linear-gradient-4" x1="-145.35" y1="962.71" x2="1428.18" y2="864.63" xlink:href="#linear-gradient"/>
    <linearGradient id="linear-gradient-5" x1="-162.51" y1="687.4" x2="1411.02" y2="589.32" xlink:href="#linear-gradient"/>
    <linearGradient id="linear-gradient-6" x1="-140.91" y1="1033.94" x2="1432.62" y2="935.86" xlink:href="#linear-gradient"/>
    <linearGradient id="linear-gradient-7" x1="-166.7" y1="620.21" x2="1406.83" y2="522.13" xlink:href="#linear-gradient"/>
    <linearGradient id="linear-gradient-8" x1="-154.88" y1="809.94" x2="1418.66" y2="711.86" xlink:href="#linear-gradient"/>
    <linearGradient id="linear-gradient-9" x1="-124.34" y1="1299.9" x2="1449.2" y2="1201.82" xlink:href="#linear-gradient"/>
    <linearGradient id="linear-gradient-10" x1="-182.65" y1="364.26" x2="1390.88" y2="266.18" xlink:href="#linear-gradient"/>
    <linearGradient id="linear-gradient-11" x1="399.38" y1="545.72" x2="1023.49" y2="506.82" xlink:href="#linear-gradient"/>
    <linearGradient id="linear-gradient-12" x1="144.23" y1="623.12" x2="1206.2" y2="556.92" xlink:href="#linear-gradient"/>
    <linearGradient id="linear-gradient-13" x1="-19.87" y1="690.71" x2="1323.42" y2="606.98" xlink:href="#linear-gradient"/>
    <linearGradient id="linear-gradient-14" x1="-114.46" y1="754.05" x2="1390.98" y2="660.22" xlink:href="#linear-gradient"/>
    <linearGradient id="linear-gradient-15" x1="402.53" y1="1070.59" x2="1026.5" y2="1031.7" xlink:href="#linear-gradient"/>
    <linearGradient id="linear-gradient-16" x1="146.92" y1="1025.03" x2="1208.75" y2="958.85" xlink:href="#linear-gradient"/>
    <linearGradient id="linear-gradient-17" x1="-17.22" y1="977.89" x2="1326.07" y2="894.16" xlink:href="#linear-gradient"/>
    <linearGradient id="linear-gradient-18" x1="-111.78" y1="926.34" x2="1393.66" y2="832.51" xlink:href="#linear-gradient"/>
    <linearGradient id="linear-gradient-19" x1="-148.1" y1="871.13" x2="1419.36" y2="773.43" xlink:href="#linear-gradient"/>
    <linearGradient id="linear-gradient-20" x1="-150.48" y1="813.78" x2="1416.97" y2="716.08" xlink:href="#linear-gradient"/>
    <linearGradient id="linear-gradient-21" x1="-166.7" y1="620.21" x2="1406.83" y2="522.13" xlink:href="#linear-gradient"/>
    <linearGradient id="linear-gradient-22" x1="-162.51" y1="687.4" x2="1411.02" y2="589.32" xlink:href="#linear-gradient"/>
    <linearGradient id="linear-gradient-23" x1="-158.3" y1="755.02" x2="1415.24" y2="656.94" xlink:href="#linear-gradient"/>
    <linearGradient id="linear-gradient-24" x1="-149.71" y1="892.86" x2="1423.83" y2="794.78" xlink:href="#linear-gradient"/>
    <linearGradient id="linear-gradient-25" x1="-145.35" y1="962.71" x2="1428.18" y2="864.63" xlink:href="#linear-gradient"/>
    <linearGradient id="linear-gradient-26" x1="-140.91" y1="1033.94" x2="1432.62" y2="935.86" xlink:href="#linear-gradient"/>
    <linearGradient id="linear-gradient-27" x1="-152.48" y1="848.31" x2="1421.05" y2="750.23" xlink:href="#linear-gradient"/>
    <linearGradient id="linear-gradient-28" x1="-148.21" y1="916.84" x2="1425.32" y2="818.76" xlink:href="#linear-gradient"/>
    <linearGradient id="linear-gradient-29" x1="-156.83" y1="778.5" x2="1416.7" y2="680.42" xlink:href="#linear-gradient"/>
    <linearGradient id="linear-gradient-30" x1="-143.96" y1="985.06" x2="1429.58" y2="886.98" xlink:href="#linear-gradient"/>
    <linearGradient id="linear-gradient-31" x1="-161.23" y1="708.05" x2="1412.31" y2="609.97" xlink:href="#linear-gradient"/>
    <linearGradient id="linear-gradient-32" x1="-139.79" y1="1051.92" x2="1433.74" y2="953.85" xlink:href="#linear-gradient"/>
    <linearGradient id="linear-gradient-33" x1="-165.64" y1="637.15" x2="1407.89" y2="539.07" xlink:href="#linear-gradient"/>
    <linearGradient id="linear-gradient-34" x1="-153.29" y1="835.44" x2="1420.25" y2="737.36" xlink:href="#linear-gradient"/>
    <linearGradient id="linear-gradient-35" x1="-165.64" y1="637.15" x2="1407.89" y2="539.07" xlink:href="#linear-gradient"/>
    <linearGradient id="linear-gradient-36" x1="-161.23" y1="708.05" x2="1412.31" y2="609.97" xlink:href="#linear-gradient"/>
    <linearGradient id="linear-gradient-37" x1="-156.83" y1="778.5" x2="1416.7" y2="680.42" xlink:href="#linear-gradient"/>
    <linearGradient id="linear-gradient-38" x1="-152.48" y1="848.31" x2="1421.05" y2="750.23" xlink:href="#linear-gradient"/>
    <linearGradient id="linear-gradient-39" x1="-148.21" y1="916.84" x2="1425.32" y2="818.76" xlink:href="#linear-gradient"/>
    <linearGradient id="linear-gradient-40" x1="-143.96" y1="985.06" x2="1429.58" y2="886.98" xlink:href="#linear-gradient"/>
    <linearGradient id="linear-gradient-41" x1="-139.79" y1="1051.92" x2="1433.74" y2="953.85" xlink:href="#linear-gradient"/>
  </defs>
  <path class="cls-9" d="M563.45,796.14c-9.7,0-17.56-7.87-17.56-17.57s7.86-17.57,17.56-17.57,17.57,7.87,17.57,17.57-7.86,17.57-17.57,17.57Z"/>
  <path class="cls-8" d="M571.81,865.45c-9.7,0-17.57-7.87-17.57-17.57s7.87-17.57,17.57-17.57,17.57,7.87,17.57,17.57-7.87,17.57-17.57,17.57Z"/>
  <path class="cls-7" d="M558.25,709.26c0-9.7,7.87-17.57,17.57-17.57s17.57,7.87,17.57,17.57-7.87,17.57-17.57,17.57-17.57-7.86-17.57-17.57Z"/>
  <circle class="cls-6" cx="584.94" cy="917.19" r="17.57"/>
  <path class="cls-3" d="M581.02,639.95c0-9.7,7.87-17.56,17.57-17.56s17.57,7.86,17.57,17.56-7.86,17.57-17.57,17.57-17.57-7.86-17.57-17.57Z"/>
  <path class="cls-4" d="M637.65,986.5c0,9.7-7.87,17.57-17.57,17.57s-17.57-7.87-17.57-17.57,7.87-17.57,17.57-17.57,17.57,7.87,17.57,17.57Z"/>
  <path class="cls-2" d="M646.08,570.65c0,9.7-7.86,17.56-17.56,17.56s-17.57-7.86-17.57-17.56,7.86-17.57,17.57-17.57,17.56,7.86,17.56,17.57Z"/>
  <path class="cls-1" d="M580.55,774.56c-.04-.22-.1-.42-.16-.64-.04-.16-.1-.33-.15-.49l-.12-.37c-.03-.12-.07-.25-.12-.37-.08-.25-.18-.49-.27-.74-.07-.18-.15-.35-.23-.53-.12-.29-.26-.57-.41-.86-.11-.23-.23-.47-.37-.68-.19-.36-.41-.7-.63-1.02-.22-.33-.45-.66-.7-.97-.08-.11-.16-.22-.25-.31-.08-.11-.18-.21-.26-.31-.31-.38-.66-.75-1-1.09-.3-.3-.61-.59-.93-.86s-.64-.53-.98-.79c-.23-.18-.45-.34-.7-.49-.27-.19-.56-.37-.86-.55-.29-.18-.59-.34-.89-.49-.34-.18-.68-.35-1.04-.49-.27-.12-.55-.23-.83-.34-.22-.1-.46-.18-.7-.25-.15-.05-.29-.09-.44-.14-.03-.01-.04-.03-.07-.03-.48-.15-.97-.26-1.46-.37-1.13-.25-2.32-.37-3.54-.37-.92,0-1.8.07-2.68.22-.23.03-.45.07-.68.12-.14.01-.27.05-.41.08-.2.04-.41.1-.61.15-1.22.3-2.38.74-3.47,1.3-.29.14-.55.29-.82.44-.4.22-.78.45-1.15.71-.3.22-.6.44-.89.66-.23.16-.46.35-.68.55-.25.22-.48.44-.71.66-.08.05-.15.12-.23.22-.08.07-.15.15-.22.22-.29.29-.56.59-.82.9-.11.12-.22.25-.31.37-.23.29-.45.57-.66.88-.23.33-.45.66-.67,1.01-.04.08-.08.15-.12.22-.22.37-.41.74-.6,1.12-.15.3-.29.59-.41.89-.05.14-.11.26-.16.4-.12.27-.22.57-.31.86-.11.29-.19.57-.27.87-.08.26-.15.53-.21.81-.07.3-.12.59-.18.89-.03.16-.05.34-.08.52-.12.83-.19,1.68-.19,2.54,0,9.7,7.86,17.57,17.56,17.57s17.57-7.87,17.57-17.57c0-1.38-.16-2.73-.46-4.02ZM589.07,844.67c-.03-.16-.07-.31-.1-.48-.08-.44-.19-.87-.33-1.3-.07-.22-.14-.41-.2-.63-.08-.25-.16-.49-.26-.72-.11-.29-.23-.57-.36-.85-.11-.23-.21-.46-.33-.68-.11-.23-.22-.45-.34-.67-.48-.85-1.01-1.65-1.63-2.4-.23-.3-.48-.59-.72-.86-.19-.22-.38-.41-.59-.62-.79-.79-1.67-1.52-2.6-2.15-.3-.2-.6-.4-.9-.57-.3-.18-.62-.34-.93-.51-.22-.12-.45-.23-.67-.33-.42-.19-.85-.37-1.28-.53-.26-.1-.53-.19-.82-.27-.55-.19-1.11-.33-1.68-.44-1.13-.25-2.32-.37-3.54-.37s-2.4.12-3.54.37c-.57.11-1.13.25-1.68.44-.29.08-.56.18-.82.27-.44.16-.86.34-1.28.53-.22.1-.45.21-.67.33-.31.16-.63.33-.93.51-.18.11-.34.21-.52.31-.37.25-.72.49-1.07.75-.22.15-.42.31-.63.49-.45.36-.87.75-1.28,1.16-.2.2-.4.4-.59.62-.11.12-.23.26-.34.4-.11.12-.22.26-.33.4-.26.3-.49.61-.7.93-.19.26-.37.53-.53.81-.04.05-.08.11-.12.18-.15.26-.3.52-.45.79-.16.31-.33.64-.48.97-.18.38-.34.78-.49,1.18-.04.07-.07.15-.08.23-.04.07-.07.15-.08.22-.08.25-.16.49-.23.74-.14.41-.25.85-.33,1.28-.03.16-.07.31-.1.48-.2,1.04-.3,2.12-.3,3.21,0,9.7,7.87,17.57,17.57,17.57s17.57-7.87,17.57-17.57c0-1.09-.1-2.17-.3-3.21ZM575.82,691.69c-9.7,0-17.57,7.87-17.57,17.57s7.87,17.57,17.57,17.57,17.57-7.86,17.57-17.57-7.87-17.57-17.57-17.57ZM602.15,913.66c-.12-.57-.26-1.13-.44-1.68-.08-.29-.18-.56-.27-.82-.16-.44-.34-.86-.53-1.28-.1-.22-.21-.45-.33-.67-.16-.33-.34-.66-.53-.97-.18-.3-.36-.59-.55-.86-.48-.71-1-1.38-1.57-1.99-.2-.23-.42-.46-.66-.67-.37-.38-.75-.74-1.16-1.07-.38-.31-.77-.61-1.18-.89-.4-.29-.82-.55-1.26-.79-.18-.11-.36-.21-.55-.3-.36-.19-.71-.37-1.08-.52-.36-.16-.71-.31-1.08-.45-.27-.1-.55-.19-.82-.27-.55-.19-1.11-.33-1.68-.44-1.13-.25-2.32-.37-3.54-.37s-2.4.12-3.54.37c-.57.11-1.13.25-1.68.44-.27.08-.55.18-.82.27-.37.14-.72.29-1.08.45-.37.15-.72.33-1.08.52-.19.09-.37.19-.55.3-.87.49-1.68,1.07-2.45,1.69-.26.22-.51.44-.74.66-.14.12-.27.25-.4.38-.07.05-.14.12-.19.19-.77.77-1.45,1.6-2.05,2.49-.19.27-.37.56-.55.86-.19.31-.37.64-.53.97-.12.22-.23.45-.33.67-.19.42-.37.85-.53,1.28-.1.26-.19.53-.27.82-.18.55-.31,1.11-.44,1.68-.23,1.15-.36,2.32-.36,3.54,0,9.7,7.87,17.57,17.57,17.57s17.57-7.87,17.57-17.57c0-1.22-.12-2.39-.36-3.54ZM615.82,636.58c-.04-.19-.08-.38-.12-.56-.1-.42-.22-.86-.34-1.28-.14-.46-.3-.93-.49-1.37-.14-.34-.29-.68-.45-1.02-.07-.16-.15-.31-.23-.46-.07-.15-.15-.3-.25-.45-.18-.34-.37-.67-.59-.98-.14-.23-.29-.44-.44-.66-.21-.29-.42-.57-.64-.85-.3-.37-.61-.72-.94-1.07-.15-.16-.31-.33-.48-.49-.27-.27-.57-.53-.86-.78-.11-.1-.2-.19-.31-.27-.11-.08-.2-.16-.31-.25-.2-.16-.42-.31-.63-.46-.22-.15-.44-.3-.66-.44-.23-.15-.45-.29-.68-.41-.23-.14-.46-.26-.7-.38-.31-.18-.63-.33-.94-.46-.04-.03-.1-.05-.14-.07-.33-.14-.66-.27-1-.4-.51-.21-1.01-.36-1.54-.49-.31-.08-.63-.15-.96-.22-.57-.12-1.15-.22-1.75-.26-.29-.04-.59-.05-.89-.07-.3-.03-.6-.04-.9-.04s-.6.01-.9.04c-.3.01-.6.03-.89.07-.57.04-1.15.12-1.69.25-.04.01-.08.03-.12.03-.23.05-.46.11-.7.16-.1.01-.18.04-.26.07-.22.05-.44.12-.66.19-.23.07-.45.14-.66.22-.38.14-.77.29-1.15.45-.37.16-.74.34-1.09.53-.36.18-.7.37-1.02.57-.34.21-.67.42-1,.66-.31.22-.63.45-.93.7-.26.2-.51.42-.74.64-.19.16-.37.33-.53.51-.19.19-.38.38-.57.59-.03.03-.05.05-.1.1-.22.25-.45.51-.67.78-.04.05-.1.12-.14.18-.22.29-.44.57-.63.86-.21.29-.4.59-.59.89-.18.29-.34.59-.51.89-.19.36-.37.72-.52,1.09-.16.35-.31.71-.45,1.08-.27.74-.49,1.5-.66,2.29-.07.3-.12.6-.18.92-.05.31-.1.64-.12.97-.03.18-.04.35-.05.53-.01.03-.01.05,0,.1t0,.03s-.01,0,0,.01c-.01.16-.03.33-.03.49-.03.23-.03.46-.03.7,0,.4.01.81.05,1.19,0,.23.03.45.05.67.05.6.14,1.19.26,1.75.12.55.26,1.09.42,1.63.15.48.31.94.51,1.39.14.34.29.67.44,1,.22.44.45.87.7,1.3.18.3.37.6.57.9.31.48.66.93,1.01,1.37.37.42.74.83,1.13,1.23.12.12.26.25.38.37.18.18.36.34.55.49.31.27.63.53.97.79.18.14.36.26.53.38.16.12.34.23.52.34.71.45,1.46.86,2.24,1.22.38.16.78.33,1.18.48.48.18.96.34,1.45.46.72.19,1.45.33,2.19.44.01.01.04.01.05.01.01.01.03.01.04,0,0,0,0,.01.01,0,.25.03.49.05.74.08.26.03.52.04.78.05.26.01.53.01.79.01s.53,0,.79-.01c.26-.01.52-.03.78-.05.25-.03.49-.05.74-.08.01.01.01,0,.01,0,.01.01.03.01.04,0,.03,0,.04,0,.05-.01.74-.11,1.46-.25,2.19-.44.49-.12.98-.29,1.45-.46.3-.11.6-.23.9-.35.44-.18.87-.4,1.3-.63.94-.51,1.84-1.09,2.68-1.75.29-.23.56-.46.82-.7.03-.01.05-.03.07-.05.2-.19.41-.38.61-.59.79-.79,1.52-1.67,2.15-2.6.31-.46.61-.96.87-1.45.22-.4.42-.82.6-1.24.08-.15.14-.31.21-.48.08-.16.14-.33.19-.49.12-.3.23-.61.33-.93.12-.42.25-.85.34-1.28.08-.34.15-.68.21-1.04.03-.12.05-.26.07-.4.03-.2.05-.42.07-.64.04-.31.07-.64.08-.97.01-.3.03-.6.03-.9,0-1.16-.11-2.28-.33-3.37ZM637.29,982.97c-.12-.57-.26-1.13-.44-1.68-.11-.33-.22-.66-.34-.98-.05-.16-.12-.33-.19-.48-.07-.15-.14-.31-.2-.46-.15-.36-.31-.7-.49-1.04-.16-.31-.34-.61-.52-.92-.22-.34-.44-.67-.67-1-.18-.27-.37-.53-.57-.78-.14-.18-.27-.34-.42-.52-.2-.25-.42-.49-.64-.71-.15-.16-.3-.31-.45-.45-.22-.22-.44-.42-.67-.63-.16-.15-.33-.29-.51-.42-.56-.48-1.16-.9-1.79-1.28-.16-.11-.34-.22-.52-.31-.27-.16-.56-.31-.85-.46-.11-.05-.22-.11-.33-.16-.26-.12-.52-.25-.78-.35-.52-.22-1.05-.42-1.61-.59-.55-.19-1.11-.33-1.68-.44-1.13-.25-2.32-.37-3.54-.37s-2.4.12-3.54.37c-.57.11-1.13.25-1.68.44-.56.16-1.09.37-1.61.59-.26.11-.52.23-.78.35-.11.05-.22.11-.33.16-.29.15-.57.3-.85.46-.18.1-.36.21-.52.31-.63.38-1.23.81-1.79,1.28-.18.14-.34.27-.51.42-.23.21-.45.41-.67.63-.15.14-.3.29-.44.45-.23.22-.45.47-.66.71-.15.18-.29.34-.42.52-.2.26-.4.52-.57.78-.23.33-.45.66-.67,1-.07.11-.15.23-.2.37-.1.16-.18.31-.27.48-.52.96-.94,1.97-1.27,3.03-.18.55-.31,1.11-.44,1.68-.23,1.15-.36,2.32-.36,3.54,0,9.7,7.87,17.57,17.57,17.57s17.57-7.87,17.57-17.57c0-1.22-.12-2.39-.36-3.54ZM640.94,558.22c-.4-.4-.81-.78-1.24-1.13-.37-.3-.75-.59-1.13-.85-.3-.22-.61-.42-.94-.62-.18-.11-.36-.22-.55-.31-.19-.11-.38-.2-.56-.3-.29-.15-.59-.3-.9-.42-.23-.11-.46-.2-.71-.3-.27-.11-.55-.2-.83-.3-.29-.1-.57-.18-.86-.26-.2-.07-.41-.12-.61-.16-.14-.04-.29-.07-.44-.1-.14-.04-.29-.07-.44-.08-.46-.1-.93-.16-1.41-.21-.29-.04-.59-.05-.89-.07-.3-.03-.6-.04-.9-.04s-.6.01-.9.04c-.6.03-1.19.08-1.78.18-.44.07-.87.15-1.3.25-.2.05-.42.11-.63.16-.38.1-.77.22-1.15.35-.37.12-.74.26-1.09.41-.46.19-.9.41-1.35.64-.3.16-.62.34-.92.52-.33.19-.64.4-.94.62-.38.26-.76.55-1.13.85-.42.35-.85.74-1.24,1.13-3.17,3.18-5.14,7.58-5.14,12.43,0,9.7,7.86,17.56,17.57,17.56s17.56-7.86,17.56-17.56c0-4.85-1.97-9.25-5.14-12.43ZM580.55,774.56c-.04-.22-.1-.42-.16-.64-.04-.16-.1-.33-.15-.49l-.12-.37c-.03-.12-.07-.25-.12-.37-.08-.25-.18-.49-.27-.74-.07-.18-.15-.35-.23-.53-.12-.29-.26-.57-.41-.86-.11-.23-.23-.47-.37-.68-.19-.36-.41-.7-.63-1.02-.22-.33-.45-.66-.7-.97-.08-.11-.16-.22-.25-.31-.08-.11-.18-.21-.26-.31-.31-.38-.66-.75-1-1.09-.3-.3-.61-.59-.93-.86s-.64-.53-.98-.79c-.23-.18-.45-.34-.7-.49-.27-.19-.56-.37-.86-.55-.29-.18-.59-.34-.89-.49-.34-.18-.68-.35-1.04-.49-.27-.12-.55-.23-.83-.34-.22-.1-.46-.18-.7-.25-.15-.05-.29-.09-.44-.14-.03-.01-.04-.03-.07-.03-.48-.15-.97-.26-1.46-.37-1.13-.25-2.32-.37-3.54-.37-.92,0-1.8.07-2.68.22-.23.03-.45.07-.68.12-.14.01-.27.05-.41.08-.2.04-.41.1-.61.15-1.22.3-2.38.74-3.47,1.3-.29.14-.55.29-.82.44-.4.22-.78.45-1.15.71-.3.22-.6.44-.89.66-.23.16-.46.35-.68.55-.25.22-.48.44-.71.66-.08.05-.15.12-.23.22-.08.07-.15.15-.22.22-.29.29-.56.59-.82.9-.11.12-.22.25-.31.37-.23.29-.45.57-.66.88-.23.33-.45.66-.67,1.01-.04.08-.08.15-.12.22-.22.37-.41.74-.6,1.12-.15.3-.29.59-.41.89-.05.14-.11.26-.16.4-.12.27-.22.57-.31.86-.11.29-.19.57-.27.87-.08.26-.15.53-.21.81-.07.3-.12.59-.18.89-.03.16-.05.34-.08.52-.12.83-.19,1.68-.19,2.54,0,9.7,7.86,17.57,17.56,17.57s17.57-7.87,17.57-17.57c0-1.38-.16-2.73-.46-4.02ZM589.07,844.67c-.03-.16-.07-.31-.1-.48-.08-.44-.19-.87-.33-1.3-.07-.22-.14-.41-.2-.63-.08-.25-.16-.49-.26-.72-.11-.29-.23-.57-.36-.85-.11-.23-.21-.46-.33-.68-.11-.23-.22-.45-.34-.67-.48-.85-1.01-1.65-1.63-2.4-.23-.3-.48-.59-.72-.86-.19-.22-.38-.41-.59-.62-.79-.79-1.67-1.52-2.6-2.15-.3-.2-.6-.4-.9-.57-.3-.18-.62-.34-.93-.51-.22-.12-.45-.23-.67-.33-.42-.19-.85-.37-1.28-.53-.26-.1-.53-.19-.82-.27-.55-.19-1.11-.33-1.68-.44-1.13-.25-2.32-.37-3.54-.37s-2.4.12-3.54.37c-.57.11-1.13.25-1.68.44-.29.08-.56.18-.82.27-.44.16-.86.34-1.28.53-.22.1-.45.21-.67.33-.31.16-.63.33-.93.51-.18.11-.34.21-.52.31-.37.25-.72.49-1.07.75-.22.15-.42.31-.63.49-.45.36-.87.75-1.28,1.16-.2.2-.4.4-.59.62-.11.12-.23.26-.34.4-.11.12-.22.26-.33.4-.26.3-.49.61-.7.93-.19.26-.37.53-.53.81-.04.05-.08.11-.12.18-.15.26-.3.52-.45.79-.16.31-.33.64-.48.97-.18.38-.34.78-.49,1.18-.04.07-.07.15-.08.23-.04.07-.07.15-.08.22-.08.25-.16.49-.23.74-.14.41-.25.85-.33,1.28-.03.16-.07.31-.1.48-.2,1.04-.3,2.12-.3,3.21,0,9.7,7.87,17.57,17.57,17.57s17.57-7.87,17.57-17.57c0-1.09-.1-2.17-.3-3.21ZM575.82,691.69c-9.7,0-17.57,7.87-17.57,17.57s7.87,17.57,17.57,17.57,17.57-7.86,17.57-17.57-7.87-17.57-17.57-17.57ZM602.15,913.66c-.12-.57-.26-1.13-.44-1.68-.08-.29-.18-.56-.27-.82-.16-.44-.34-.86-.53-1.28-.1-.22-.21-.45-.33-.67-.16-.33-.34-.66-.53-.97-.18-.3-.36-.59-.55-.86-.48-.71-1-1.38-1.57-1.99-.2-.23-.42-.46-.66-.67-.37-.38-.75-.74-1.16-1.07-.38-.31-.77-.61-1.18-.89-.4-.29-.82-.55-1.26-.79-.18-.11-.36-.21-.55-.3-.36-.19-.71-.37-1.08-.52-.36-.16-.71-.31-1.08-.45-.27-.1-.55-.19-.82-.27-.55-.19-1.11-.33-1.68-.44-1.13-.25-2.32-.37-3.54-.37s-2.4.12-3.54.37c-.57.11-1.13.25-1.68.44-.27.08-.55.18-.82.27-.37.14-.72.29-1.08.45-.37.15-.72.33-1.08.52-.19.09-.37.19-.55.3-.87.49-1.68,1.07-2.45,1.69-.26.22-.51.44-.74.66-.14.12-.27.25-.4.38-.07.05-.14.12-.19.19-.77.77-1.45,1.6-2.05,2.49-.19.27-.37.56-.55.86-.19.31-.37.64-.53.97-.12.22-.23.45-.33.67-.19.42-.37.85-.53,1.28-.1.26-.19.53-.27.82-.18.55-.31,1.11-.44,1.68-.23,1.15-.36,2.32-.36,3.54,0,9.7,7.87,17.57,17.57,17.57s17.57-7.87,17.57-17.57c0-1.22-.12-2.39-.36-3.54ZM615.82,636.58c-.04-.19-.08-.38-.12-.56-.1-.42-.22-.86-.34-1.28-.14-.46-.3-.93-.49-1.37-.14-.34-.29-.68-.45-1.02-.07-.16-.15-.31-.23-.46-.07-.15-.15-.3-.25-.45-.18-.34-.37-.67-.59-.98-.14-.23-.29-.44-.44-.66-.21-.29-.42-.57-.64-.85-.3-.37-.61-.72-.94-1.07-.15-.16-.31-.33-.48-.49-.27-.27-.57-.53-.86-.78-.11-.1-.2-.19-.31-.27-.11-.08-.2-.16-.31-.25-.2-.16-.42-.31-.63-.46-.22-.15-.44-.3-.66-.44-.23-.15-.45-.29-.68-.41-.23-.14-.46-.26-.7-.38-.31-.18-.63-.33-.94-.46-.04-.03-.1-.05-.14-.07-.33-.14-.66-.27-1-.4-.51-.21-1.01-.36-1.54-.49-.31-.08-.63-.15-.96-.22-.57-.12-1.15-.22-1.75-.26-.29-.04-.59-.05-.89-.07-.3-.03-.6-.04-.9-.04s-.6.01-.9.04c-.3.01-.6.03-.89.07-.57.04-1.15.12-1.69.25-.04.01-.08.03-.12.03-.23.05-.46.11-.7.16-.1.01-.18.04-.26.07-.22.05-.44.12-.66.19-.23.07-.45.14-.66.22-.38.14-.77.29-1.15.45-.37.16-.74.34-1.09.53-.36.18-.7.37-1.02.57-.34.21-.67.42-1,.66-.31.22-.63.45-.93.7-.26.2-.51.42-.74.64-.19.16-.37.33-.53.51-.19.19-.38.38-.57.59-.03.03-.05.05-.1.1-.22.25-.45.51-.67.78-.04.05-.1.12-.14.18-.22.29-.44.57-.63.86-.21.29-.4.59-.59.89-.18.29-.34.59-.51.89-.19.36-.37.72-.52,1.09-.16.35-.31.71-.45,1.08-.27.74-.49,1.5-.66,2.29-.07.3-.12.6-.18.92-.05.31-.1.64-.12.97-.03.18-.04.35-.05.53-.01.03-.01.05,0,.1t0,.03s-.01,0,0,.01c-.01.16-.03.33-.03.49-.03.23-.03.46-.03.7,0,.4.01.81.05,1.19,0,.23.03.45.05.67.05.6.14,1.19.26,1.75.12.55.26,1.09.42,1.63.15.48.31.94.51,1.39.14.34.29.67.44,1,.22.44.45.87.7,1.3.18.3.37.6.57.9.31.48.66.93,1.01,1.37.37.42.74.83,1.13,1.23.12.12.26.25.38.37.18.18.36.34.55.49.31.27.63.53.97.79.18.14.36.26.53.38.16.12.34.23.52.34.71.45,1.46.86,2.24,1.22.38.16.78.33,1.18.48.48.18.96.34,1.45.46.72.19,1.45.33,2.19.44.01.01.04.01.05.01.01.01.03.01.04,0,0,0,0,.01.01,0,.25.03.49.05.74.08.26.03.52.04.78.05.26.01.53.01.79.01s.53,0,.79-.01c.26-.01.52-.03.78-.05.25-.03.49-.05.74-.08.01.01.01,0,.01,0,.01.01.03.01.04,0,.03,0,.04,0,.05-.01.74-.11,1.46-.25,2.19-.44.49-.12.98-.29,1.45-.46.3-.11.6-.23.9-.35.44-.18.87-.4,1.3-.63.94-.51,1.84-1.09,2.68-1.75.29-.23.56-.46.82-.7.03-.01.05-.03.07-.05.2-.19.41-.38.61-.59.79-.79,1.52-1.67,2.15-2.6.31-.46.61-.96.87-1.45.22-.4.42-.82.6-1.24.08-.15.14-.31.21-.48.08-.16.14-.33.19-.49.12-.3.23-.61.33-.93.12-.42.25-.85.34-1.28.08-.34.15-.68.21-1.04.03-.12.05-.26.07-.4.03-.2.05-.42.07-.64.04-.31.07-.64.08-.97.01-.3.03-.6.03-.9,0-1.16-.11-2.28-.33-3.37ZM573.77,1005.18c-37.5-66.74-57.33-142.73-57.33-219.71s19.82-152.99,57.33-219.74c28.3-50.36,66.29-94.98,111.31-131.08-42.33-38.28-78.2-83.68-105.72-134.13-10.48-19.21-19.7-39.07-27.63-59.43v-.03C277.97,258.96,61.48,486.66,61.48,764.93c0,144.96,58.76,276.22,153.76,371.23,91.27,91.25,215.97,149.06,354.16,153.47,3.18-6.49,6.5-12.9,9.96-19.24,27.52-50.44,63.39-95.84,105.72-134.13-45.02-36.1-83.01-80.72-111.31-131.08ZM512,480.29h49.62v49.64h-49.62v-49.64ZM458.53,941.62h57.75v33.79h-57.75v-33.79ZM440.12,921.94v-74.43h69.31v74.43h-69.31ZM461.09,489.39h18.83v23.96h-18.83v-23.96ZM455.96,555.28h56.47v56.48h-56.47v-56.48ZM436.28,624.6h67.17v59.88h-67.17v-59.88ZM487.19,700.31v42.78h-72.73v-42.78h72.73ZM384.37,458.83h46.29v46.27h-46.29v-46.27ZM414.46,551.02v30.37h-22.61v-30.37h22.61ZM363.26,631.71h57.18v57.18h-57.18v-57.18ZM384.37,807.33h-66.71v-66.69h66.71v66.69ZM414.31,847.5v59.91h-59.9v-59.91h59.9ZM347.72,669.08v26.53h-18.5v-26.53h18.5ZM334.46,638.08v-22.05h15.19v22.05h-15.19ZM308.81,545.27h40.84v40.84h-40.84v-40.84ZM278.84,499.24h16.26v18.81h-16.26v-18.81ZM263.87,614.03h35.4v35.39h-35.4v-35.39ZM255.92,713.61h51.3v51.32h-51.3v-51.32ZM220.22,559.12h23.1v20.13h-23.1v-20.13ZM207.39,619.02h19.03v19.06h-19.03v-19.06ZM203.98,719.52h28.6v28.61h-28.6v-28.61ZM199.21,847.5v-50.36h50.37v50.36h-50.37ZM254.35,998.61h-28.6v-28.58h28.6v28.58ZM261.84,944.16h-36.77v-36.75h36.77v36.75ZM270.69,820.29h44.92v44.92h-44.92v-44.92ZM303,1051.79h-22.46v-22.46h22.46v22.46ZM312.21,952.34h51.73v51.74h-51.73v-51.74ZM368.26,1093.48h-23.1v-26.5h23.1v26.5ZM417.02,1091.35h-24.37v-24.37h24.37v24.37ZM392.64,1036.81v-22.88h22.88v22.88h-22.88ZM417.88,966.82h-26.03v-43.09h26.03v43.09ZM417.88,832.53h-26.03v-14.14h26.03v14.14ZM427.72,756.78h75.73v75.74h-75.73v-75.74ZM431.34,996.59h49.01v48.99h-49.01v-48.99ZM490.18,1093.48h-44.06v-32.5h44.06v32.5ZM551.79,1087.5h-35.51v-29.09h35.51v29.09ZM556.5,1048.14h-45.36v-51.55h45.36v51.55ZM637.29,982.97c-.12-.57-.26-1.13-.44-1.68-.11-.33-.22-.66-.34-.98-.05-.16-.12-.33-.19-.48-.07-.15-.14-.31-.2-.46-.15-.36-.31-.7-.49-1.04-.16-.31-.34-.61-.52-.92-.22-.34-.44-.67-.67-1-.18-.27-.37-.53-.57-.78-.14-.18-.27-.34-.42-.52-.2-.25-.42-.49-.64-.71-.15-.16-.3-.31-.45-.45-.22-.22-.44-.42-.67-.63-.16-.15-.33-.29-.51-.42-.56-.48-1.16-.9-1.79-1.28-.16-.11-.34-.22-.52-.31-.27-.16-.56-.31-.85-.46-.11-.05-.22-.11-.33-.16-.26-.12-.52-.25-.78-.35-.52-.22-1.05-.42-1.61-.59-.55-.19-1.11-.33-1.68-.44-1.13-.25-2.32-.37-3.54-.37s-2.4.12-3.54.37c-.57.11-1.13.25-1.68.44-.56.16-1.09.37-1.61.59-.26.11-.52.23-.78.35-.11.05-.22.11-.33.16-.29.15-.57.3-.85.46-.18.1-.36.21-.52.31-.63.38-1.23.81-1.79,1.28-.18.14-.34.27-.51.42-.23.21-.45.41-.67.63-.15.14-.3.29-.44.45-.23.22-.45.47-.66.71-.15.18-.29.34-.42.52-.2.26-.4.52-.57.78-.23.33-.45.66-.67,1-.07.11-.15.23-.2.37-.1.16-.18.31-.27.48-.52.96-.94,1.97-1.27,3.03-.18.55-.31,1.11-.44,1.68-.23,1.15-.36,2.32-.36,3.54,0,9.7,7.87,17.57,17.57,17.57s17.57-7.87,17.57-17.57c0-1.22-.12-2.39-.36-3.54ZM640.94,558.22c-.4-.4-.81-.78-1.24-1.13-.37-.3-.75-.59-1.13-.85-.3-.22-.61-.42-.94-.62-.18-.11-.36-.22-.55-.31-.19-.11-.38-.2-.56-.3-.29-.15-.59-.3-.9-.42-.23-.11-.46-.2-.71-.3-.27-.11-.55-.2-.83-.3-.29-.1-.57-.18-.86-.26-.2-.07-.41-.12-.61-.16-.14-.04-.29-.07-.44-.1-.14-.04-.29-.07-.44-.08-.46-.1-.93-.16-1.41-.21-.29-.04-.59-.05-.89-.07-.3-.03-.6-.04-.9-.04s-.6.01-.9.04c-.6.03-1.19.08-1.78.18-.44.07-.87.15-1.3.25-.2.05-.42.11-.63.16-.38.1-.77.22-1.15.35-.37.12-.74.26-1.09.41-.46.19-.9.41-1.35.64-.3.16-.62.34-.92.52-.33.19-.64.4-.94.62-.38.26-.76.55-1.13.85-.42.35-.85.74-1.24,1.13-3.17,3.18-5.14,7.58-5.14,12.43,0,9.7,7.86,17.56,17.57,17.56s17.56-7.86,17.56-17.56c0-4.85-1.97-9.25-5.14-12.43ZM580.55,774.56c-.04-.22-.1-.42-.16-.64-.04-.16-.1-.33-.15-.49l-.12-.37c-.03-.12-.07-.25-.12-.37-.08-.25-.18-.49-.27-.74-.07-.18-.15-.35-.23-.53-.12-.29-.26-.57-.41-.86-.11-.23-.23-.47-.37-.68-.19-.36-.41-.7-.63-1.02-.22-.33-.45-.66-.7-.97-.08-.11-.16-.22-.25-.31-.08-.11-.18-.21-.26-.31-.31-.38-.66-.75-1-1.09-.3-.3-.61-.59-.93-.86s-.64-.53-.98-.79c-.23-.18-.45-.34-.7-.49-.27-.19-.56-.37-.86-.55-.29-.18-.59-.34-.89-.49-.34-.18-.68-.35-1.04-.49-.27-.12-.55-.23-.83-.34-.22-.1-.46-.18-.7-.25-.15-.05-.29-.09-.44-.14-.03-.01-.04-.03-.07-.03-.48-.15-.97-.26-1.46-.37-1.13-.25-2.32-.37-3.54-.37-.92,0-1.8.07-2.68.22-.23.03-.45.07-.68.12-.14.01-.27.05-.41.08-.2.04-.41.1-.61.15-1.22.3-2.38.74-3.47,1.3-.29.14-.55.29-.82.44-.4.22-.78.45-1.15.71-.3.22-.6.44-.89.66-.23.16-.46.35-.68.55-.25.22-.48.44-.71.66-.08.05-.15.12-.23.22-.08.07-.15.15-.22.22-.29.29-.56.59-.82.9-.11.12-.22.25-.31.37-.23.29-.45.57-.66.88-.23.33-.45.66-.67,1.01-.04.08-.08.15-.12.22-.22.37-.41.74-.6,1.12-.15.3-.29.59-.41.89-.05.14-.11.26-.16.4-.12.27-.22.57-.31.86-.11.29-.19.57-.27.87-.08.26-.15.53-.21.81-.07.3-.12.59-.18.89-.03.16-.05.34-.08.52-.12.83-.19,1.68-.19,2.54,0,9.7,7.86,17.57,17.56,17.57s17.57-7.87,17.57-17.57c0-1.38-.16-2.73-.46-4.02ZM589.07,844.67c-.03-.16-.07-.31-.1-.48-.08-.44-.19-.87-.33-1.3-.07-.22-.14-.41-.2-.63-.08-.25-.16-.49-.26-.72-.11-.29-.23-.57-.36-.85-.11-.23-.21-.46-.33-.68-.11-.23-.22-.45-.34-.67-.48-.85-1.01-1.65-1.63-2.4-.23-.3-.48-.59-.72-.86-.19-.22-.38-.41-.59-.62-.79-.79-1.67-1.52-2.6-2.15-.3-.2-.6-.4-.9-.57-.3-.18-.62-.34-.93-.51-.22-.12-.45-.23-.67-.33-.42-.19-.85-.37-1.28-.53-.26-.1-.53-.19-.82-.27-.55-.19-1.11-.33-1.68-.44-1.13-.25-2.32-.37-3.54-.37s-2.4.12-3.54.37c-.57.11-1.13.25-1.68.44-.29.08-.56.18-.82.27-.44.16-.86.34-1.28.53-.22.1-.45.21-.67.33-.31.16-.63.33-.93.51-.18.11-.34.21-.52.31-.37.25-.72.49-1.07.75-.22.15-.42.31-.63.49-.45.36-.87.75-1.28,1.16-.2.2-.4.4-.59.62-.11.12-.23.26-.34.4-.11.12-.22.26-.33.4-.26.3-.49.61-.7.93-.19.26-.37.53-.53.81-.04.05-.08.11-.12.18-.15.26-.3.52-.45.79-.16.31-.33.64-.48.97-.18.38-.34.78-.49,1.18-.04.07-.07.15-.08.23-.04.07-.07.15-.08.22-.08.25-.16.49-.23.74-.14.41-.25.85-.33,1.28-.03.16-.07.31-.1.48-.2,1.04-.3,2.12-.3,3.21,0,9.7,7.87,17.57,17.57,17.57s17.57-7.87,17.57-17.57c0-1.09-.1-2.17-.3-3.21ZM575.82,691.69c-9.7,0-17.57,7.87-17.57,17.57s7.87,17.57,17.57,17.57,17.57-7.86,17.57-17.57-7.87-17.57-17.57-17.57ZM602.15,913.66c-.12-.57-.26-1.13-.44-1.68-.08-.29-.18-.56-.27-.82-.16-.44-.34-.86-.53-1.28-.1-.22-.21-.45-.33-.67-.16-.33-.34-.66-.53-.97-.18-.3-.36-.59-.55-.86-.48-.71-1-1.38-1.57-1.99-.2-.23-.42-.46-.66-.67-.37-.38-.75-.74-1.16-1.07-.38-.31-.77-.61-1.18-.89-.4-.29-.82-.55-1.26-.79-.18-.11-.36-.21-.55-.3-.36-.19-.71-.37-1.08-.52-.36-.16-.71-.31-1.08-.45-.27-.1-.55-.19-.82-.27-.55-.19-1.11-.33-1.68-.44-1.13-.25-2.32-.37-3.54-.37s-2.4.12-3.54.37c-.57.11-1.13.25-1.68.44-.27.08-.55.18-.82.27-.37.14-.72.29-1.08.45-.37.15-.72.33-1.08.52-.19.09-.37.19-.55.3-.87.49-1.68,1.07-2.45,1.69-.26.22-.51.44-.74.66-.14.12-.27.25-.4.38-.07.05-.14.12-.19.19-.77.77-1.45,1.6-2.05,2.49-.19.27-.37.56-.55.86-.19.31-.37.64-.53.97-.12.22-.23.45-.33.67-.19.42-.37.85-.53,1.28-.1.26-.19.53-.27.82-.18.55-.31,1.11-.44,1.68-.23,1.15-.36,2.32-.36,3.54,0,9.7,7.87,17.57,17.57,17.57s17.57-7.87,17.57-17.57c0-1.22-.12-2.39-.36-3.54ZM615.82,636.58c-.04-.19-.08-.38-.12-.56-.1-.42-.22-.86-.34-1.28-.14-.46-.3-.93-.49-1.37-.14-.34-.29-.68-.45-1.02-.07-.16-.15-.31-.23-.46-.07-.15-.15-.3-.25-.45-.18-.34-.37-.67-.59-.98-.14-.23-.29-.44-.44-.66-.21-.29-.42-.57-.64-.85-.3-.37-.61-.72-.94-1.07-.15-.16-.31-.33-.48-.49-.27-.27-.57-.53-.86-.78-.11-.1-.2-.19-.31-.27-.11-.08-.2-.16-.31-.25-.2-.16-.42-.31-.63-.46-.22-.15-.44-.3-.66-.44-.23-.15-.45-.29-.68-.41-.23-.14-.46-.26-.7-.38-.31-.18-.63-.33-.94-.46-.04-.03-.1-.05-.14-.07-.33-.14-.66-.27-1-.4-.51-.21-1.01-.36-1.54-.49-.31-.08-.63-.15-.96-.22-.57-.12-1.15-.22-1.75-.26-.29-.04-.59-.05-.89-.07-.3-.03-.6-.04-.9-.04s-.6.01-.9.04c-.3.01-.6.03-.89.07-.57.04-1.15.12-1.69.25-.04.01-.08.03-.12.03-.23.05-.46.11-.7.16-.1.01-.18.04-.26.07-.22.05-.44.12-.66.19-.23.07-.45.14-.66.22-.38.14-.77.29-1.15.45-.37.16-.74.34-1.09.53-.36.18-.7.37-1.02.57-.34.21-.67.42-1,.66-.31.22-.63.45-.93.7-.26.2-.51.42-.74.64-.19.16-.37.33-.53.51-.19.19-.38.38-.57.59-.03.03-.05.05-.1.1-.22.25-.45.51-.67.78-.04.05-.1.12-.14.18-.22.29-.44.57-.63.86-.21.29-.4.59-.59.89-.18.29-.34.59-.51.89-.19.36-.37.72-.52,1.09-.16.35-.31.71-.45,1.08-.27.74-.49,1.5-.66,2.29-.07.3-.12.6-.18.92-.05.31-.1.64-.12.97-.03.18-.04.35-.05.53-.01.03-.01.05,0,.1t0,.03s-.01,0,0,.01c-.01.16-.03.33-.03.49-.03.23-.03.46-.03.7,0,.4.01.81.05,1.19,0,.23.03.45.05.67.05.6.14,1.19.26,1.75.12.55.26,1.09.42,1.63.15.48.31.94.51,1.39.14.34.29.67.44,1,.22.44.45.87.7,1.3.18.3.37.6.57.9.31.48.66.93,1.01,1.37.37.42.74.83,1.13,1.23.12.12.26.25.38.37.18.18.36.34.55.49.31.27.63.53.97.79.18.14.36.26.53.38.16.12.34.23.52.34.71.45,1.46.86,2.24,1.22.38.16.78.33,1.18.48.48.18.96.34,1.45.46.72.19,1.45.33,2.19.44.01.01.04.01.05.01.01.01.03.01.04,0,0,0,0,.01.01,0,.25.03.49.05.74.08.26.03.52.04.78.05.26.01.53.01.79.01s.53,0,.79-.01c.26-.01.52-.03.78-.05.25-.03.49-.05.74-.08.01.01.01,0,.01,0,.01.01.03.01.04,0,.03,0,.04,0,.05-.01.74-.11,1.46-.25,2.19-.44.49-.12.98-.29,1.45-.46.3-.11.6-.23.9-.35.44-.18.87-.4,1.3-.63.94-.51,1.84-1.09,2.68-1.75.29-.23.56-.46.82-.7.03-.01.05-.03.07-.05.2-.19.41-.38.61-.59.79-.79,1.52-1.67,2.15-2.6.31-.46.61-.96.87-1.45.22-.4.42-.82.6-1.24.08-.15.14-.31.21-.48.08-.16.14-.33.19-.49.12-.3.23-.61.33-.93.12-.42.25-.85.34-1.28.08-.34.15-.68.21-1.04.03-.12.05-.26.07-.4.03-.2.05-.42.07-.64.04-.31.07-.64.08-.97.01-.3.03-.6.03-.9,0-1.16-.11-2.28-.33-3.37ZM637.29,982.97c-.12-.57-.26-1.13-.44-1.68-.11-.33-.22-.66-.34-.98-.05-.16-.12-.33-.19-.48-.07-.15-.14-.31-.2-.46-.15-.36-.31-.7-.49-1.04-.16-.31-.34-.61-.52-.92-.22-.34-.44-.67-.67-1-.18-.27-.37-.53-.57-.78-.14-.18-.27-.34-.42-.52-.2-.25-.42-.49-.64-.71-.15-.16-.3-.31-.45-.45-.22-.22-.44-.42-.67-.63-.16-.15-.33-.29-.51-.42-.56-.48-1.16-.9-1.79-1.28-.16-.11-.34-.22-.52-.31-.27-.16-.56-.31-.85-.46-.11-.05-.22-.11-.33-.16-.26-.12-.52-.25-.78-.35-.52-.22-1.05-.42-1.61-.59-.55-.19-1.11-.33-1.68-.44-1.13-.25-2.32-.37-3.54-.37s-2.4.12-3.54.37c-.57.11-1.13.25-1.68.44-.56.16-1.09.37-1.61.59-.26.11-.52.23-.78.35-.11.05-.22.11-.33.16-.29.15-.57.3-.85.46-.18.1-.36.21-.52.31-.63.38-1.23.81-1.79,1.28-.18.14-.34.27-.51.42-.23.21-.45.41-.67.63-.15.14-.3.29-.44.45-.23.22-.45.47-.66.71-.15.18-.29.34-.42.52-.2.26-.4.52-.57.78-.23.33-.45.66-.67,1-.07.11-.15.23-.2.37-.1.16-.18.31-.27.48-.52.96-.94,1.97-1.27,3.03-.18.55-.31,1.11-.44,1.68-.23,1.15-.36,2.32-.36,3.54,0,9.7,7.87,17.57,17.57,17.57s17.57-7.87,17.57-17.57c0-1.22-.12-2.39-.36-3.54ZM640.94,558.22c-.4-.4-.81-.78-1.24-1.13-.37-.3-.75-.59-1.13-.85-.3-.22-.61-.42-.94-.62-.18-.11-.36-.22-.55-.31-.19-.11-.38-.2-.56-.3-.29-.15-.59-.3-.9-.42-.23-.11-.46-.2-.71-.3-.27-.11-.55-.2-.83-.3-.29-.1-.57-.18-.86-.26-.2-.07-.41-.12-.61-.16-.14-.04-.29-.07-.44-.1-.14-.04-.29-.07-.44-.08-.46-.1-.93-.16-1.41-.21-.29-.04-.59-.05-.89-.07-.3-.03-.6-.04-.9-.04s-.6.01-.9.04c-.6.03-1.19.08-1.78.18-.44.07-.87.15-1.3.25-.2.05-.42.11-.63.16-.38.1-.77.22-1.15.35-.37.12-.74.26-1.09.41-.46.19-.9.41-1.35.64-.3.16-.62.34-.92.52-.33.19-.64.4-.94.62-.38.26-.76.55-1.13.85-.42.35-.85.74-1.24,1.13-3.17,3.18-5.14,7.58-5.14,12.43,0,9.7,7.86,17.56,17.57,17.56s17.56-7.86,17.56-17.56c0-4.85-1.97-9.25-5.14-12.43ZM640.94,558.22c-.4-.4-.81-.78-1.24-1.13-.37-.3-.75-.59-1.13-.85-.3-.22-.61-.42-.94-.62-.18-.11-.36-.22-.55-.31-.19-.11-.38-.2-.56-.3-.29-.15-.59-.3-.9-.42-.23-.11-.46-.2-.71-.3-.27-.11-.55-.2-.83-.3-.29-.1-.57-.18-.86-.26-.2-.07-.41-.12-.61-.16-.14-.04-.29-.07-.44-.1-.14-.04-.29-.07-.44-.08-.46-.1-.93-.16-1.41-.21-.29-.04-.59-.05-.89-.07-.3-.03-.6-.04-.9-.04s-.6.01-.9.04c-.6.03-1.19.08-1.78.18-.44.07-.87.15-1.3.25-.2.05-.42.11-.63.16-.38.1-.77.22-1.15.35-.37.12-.74.26-1.09.41-.46.19-.9.41-1.35.64-.3.16-.62.34-.92.52-.33.19-.64.4-.94.62-.38.26-.76.55-1.13.85-.42.35-.85.74-1.24,1.13-3.17,3.18-5.14,7.58-5.14,12.43,0,9.7,7.86,17.56,17.57,17.56s17.56-7.86,17.56-17.56c0-4.85-1.97-9.25-5.14-12.43ZM637.29,982.97c-.12-.57-.26-1.13-.44-1.68-.11-.33-.22-.66-.34-.98-.05-.16-.12-.33-.19-.48-.07-.15-.14-.31-.2-.46-.15-.36-.31-.7-.49-1.04-.16-.31-.34-.61-.52-.92-.22-.34-.44-.67-.67-1-.18-.27-.37-.53-.57-.78-.14-.18-.27-.34-.42-.52-.2-.25-.42-.49-.64-.71-.15-.16-.3-.31-.45-.45-.22-.22-.44-.42-.67-.63-.16-.15-.33-.29-.51-.42-.56-.48-1.16-.9-1.79-1.28-.16-.11-.34-.22-.52-.31-.27-.16-.56-.31-.85-.46-.11-.05-.22-.11-.33-.16-.26-.12-.52-.25-.78-.35-.52-.22-1.05-.42-1.61-.59-.55-.19-1.11-.33-1.68-.44-1.13-.25-2.32-.37-3.54-.37s-2.4.12-3.54.37c-.57.11-1.13.25-1.68.44-.56.16-1.09.37-1.61.59-.26.11-.52.23-.78.35-.11.05-.22.11-.33.16-.29.15-.57.3-.85.46-.18.1-.36.21-.52.31-.63.38-1.23.81-1.79,1.28-.18.14-.34.27-.51.42-.23.21-.45.41-.67.63-.15.14-.3.29-.44.45-.23.22-.45.47-.66.71-.15.18-.29.34-.42.52-.2.26-.4.52-.57.78-.23.33-.45.66-.67,1-.07.11-.15.23-.2.37-.1.16-.18.31-.27.48-.52.96-.94,1.97-1.27,3.03-.18.55-.31,1.11-.44,1.68-.23,1.15-.36,2.32-.36,3.54,0,9.7,7.87,17.57,17.57,17.57s17.57-7.87,17.57-17.57c0-1.22-.12-2.39-.36-3.54ZM615.82,636.58c-.04-.19-.08-.38-.12-.56-.1-.42-.22-.86-.34-1.28-.14-.46-.3-.93-.49-1.37-.14-.34-.29-.68-.45-1.02-.07-.16-.15-.31-.23-.46-.07-.15-.15-.3-.25-.45-.18-.34-.37-.67-.59-.98-.14-.23-.29-.44-.44-.66-.21-.29-.42-.57-.64-.85-.3-.37-.61-.72-.94-1.07-.15-.16-.31-.33-.48-.49-.27-.27-.57-.53-.86-.78-.11-.1-.2-.19-.31-.27-.11-.08-.2-.16-.31-.25-.2-.16-.42-.31-.63-.46-.22-.15-.44-.3-.66-.44-.23-.15-.45-.29-.68-.41-.23-.14-.46-.26-.7-.38-.31-.18-.63-.33-.94-.46-.04-.03-.1-.05-.14-.07-.33-.14-.66-.27-1-.4-.51-.21-1.01-.36-1.54-.49-.31-.08-.63-.15-.96-.22-.57-.12-1.15-.22-1.75-.26-.29-.04-.59-.05-.89-.07-.3-.03-.6-.04-.9-.04s-.6.01-.9.04c-.3.01-.6.03-.89.07-.57.04-1.15.12-1.69.25-.04.01-.08.03-.12.03-.23.05-.46.11-.7.16-.1.01-.18.04-.26.07-.22.05-.44.12-.66.19-.23.07-.45.14-.66.22-.38.14-.77.29-1.15.45-.37.16-.74.34-1.09.53-.36.18-.7.37-1.02.57-.34.21-.67.42-1,.66-.31.22-.63.45-.93.7-.26.2-.51.42-.74.64-.19.16-.37.33-.53.51-.19.19-.38.38-.57.59-.03.03-.05.05-.1.1-.22.25-.45.51-.67.78-.04.05-.1.12-.14.18-.22.29-.44.57-.63.86-.21.29-.4.59-.59.89-.18.29-.34.59-.51.89-.19.36-.37.72-.52,1.09-.16.35-.31.71-.45,1.08-.27.74-.49,1.5-.66,2.29-.07.3-.12.6-.18.92-.05.31-.1.64-.12.97-.03.18-.04.35-.05.53-.01.03-.01.05,0,.1t0,.03s-.01,0,0,.01c-.01.16-.03.33-.03.49-.03.23-.03.46-.03.7,0,.4.01.81.05,1.19,0,.23.03.45.05.67.05.6.14,1.19.26,1.75.12.55.26,1.09.42,1.63.15.48.31.94.51,1.39.14.34.29.67.44,1,.22.44.45.87.7,1.3.18.3.37.6.57.9.31.48.66.93,1.01,1.37.37.42.74.83,1.13,1.23.12.12.26.25.38.37.18.18.36.34.55.49.31.27.63.53.97.79.18.14.36.26.53.38.16.12.34.23.52.34.71.45,1.46.86,2.24,1.22.38.16.78.33,1.18.48.48.18.96.34,1.45.46.72.19,1.45.33,2.19.44.01.01.04.01.05.01.01.01.03.01.04,0,0,0,0,.01.01,0,.25.03.49.05.74.08.26.03.52.04.78.05.26.01.53.01.79.01s.53,0,.79-.01c.26-.01.52-.03.78-.05.25-.03.49-.05.74-.08.01.01.01,0,.01,0,.01.01.03.01.04,0,.03,0,.04,0,.05-.01.74-.11,1.46-.25,2.19-.44.49-.12.98-.29,1.45-.46.3-.11.6-.23.9-.35.44-.18.87-.4,1.3-.63.94-.51,1.84-1.09,2.68-1.75.29-.23.56-.46.82-.7.03-.01.05-.03.07-.05.2-.19.41-.38.61-.59.79-.79,1.52-1.67,2.15-2.6.31-.46.61-.96.87-1.45.22-.4.42-.82.6-1.24.08-.15.14-.31.21-.48.08-.16.14-.33.19-.49.12-.3.23-.61.33-.93.12-.42.25-.85.34-1.28.08-.34.15-.68.21-1.04.03-.12.05-.26.07-.4.03-.2.05-.42.07-.64.04-.31.07-.64.08-.97.01-.3.03-.6.03-.9,0-1.16-.11-2.28-.33-3.37ZM602.15,913.66c-.12-.57-.26-1.13-.44-1.68-.08-.29-.18-.56-.27-.82-.16-.44-.34-.86-.53-1.28-.1-.22-.21-.45-.33-.67-.16-.33-.34-.66-.53-.97-.18-.3-.36-.59-.55-.86-.48-.71-1-1.38-1.57-1.99-.2-.23-.42-.46-.66-.67-.37-.38-.75-.74-1.16-1.07-.38-.31-.77-.61-1.18-.89-.4-.29-.82-.55-1.26-.79-.18-.11-.36-.21-.55-.3-.36-.19-.71-.37-1.08-.52-.36-.16-.71-.31-1.08-.45-.27-.1-.55-.19-.82-.27-.55-.19-1.11-.33-1.68-.44-1.13-.25-2.32-.37-3.54-.37s-2.4.12-3.54.37c-.57.11-1.13.25-1.68.44-.27.08-.55.18-.82.27-.37.14-.72.29-1.08.45-.37.15-.72.33-1.08.52-.19.09-.37.19-.55.3-.87.49-1.68,1.07-2.45,1.69-.26.22-.51.44-.74.66-.14.12-.27.25-.4.38-.07.05-.14.12-.19.19-.77.77-1.45,1.6-2.05,2.49-.19.27-.37.56-.55.86-.19.31-.37.64-.53.97-.12.22-.23.45-.33.67-.19.42-.37.85-.53,1.28-.1.26-.19.53-.27.82-.18.55-.31,1.11-.44,1.68-.23,1.15-.36,2.32-.36,3.54,0,9.7,7.87,17.57,17.57,17.57s17.57-7.87,17.57-17.57c0-1.22-.12-2.39-.36-3.54ZM575.82,691.69c-9.7,0-17.57,7.87-17.57,17.57s7.87,17.57,17.57,17.57,17.57-7.86,17.57-17.57-7.87-17.57-17.57-17.57ZM589.07,844.67c-.03-.16-.07-.31-.1-.48-.08-.44-.19-.87-.33-1.3-.07-.22-.14-.41-.2-.63-.08-.25-.16-.49-.26-.72-.11-.29-.23-.57-.36-.85-.11-.23-.21-.46-.33-.68-.11-.23-.22-.45-.34-.67-.48-.85-1.01-1.65-1.63-2.4-.23-.3-.48-.59-.72-.86-.19-.22-.38-.41-.59-.62-.79-.79-1.67-1.52-2.6-2.15-.3-.2-.6-.4-.9-.57-.3-.18-.62-.34-.93-.51-.22-.12-.45-.23-.67-.33-.42-.19-.85-.37-1.28-.53-.26-.1-.53-.19-.82-.27-.55-.19-1.11-.33-1.68-.44-1.13-.25-2.32-.37-3.54-.37s-2.4.12-3.54.37c-.57.11-1.13.25-1.68.44-.29.08-.56.18-.82.27-.44.16-.86.34-1.28.53-.22.1-.45.21-.67.33-.31.16-.63.33-.93.51-.18.11-.34.21-.52.31-.37.25-.72.49-1.07.75-.22.15-.42.31-.63.49-.45.36-.87.75-1.28,1.16-.2.2-.4.4-.59.62-.11.12-.23.26-.34.4-.11.12-.22.26-.33.4-.26.3-.49.61-.7.93-.19.26-.37.53-.53.81-.04.05-.08.11-.12.18-.15.26-.3.52-.45.79-.16.31-.33.64-.48.97-.18.38-.34.78-.49,1.18-.04.07-.07.15-.08.23-.04.07-.07.15-.08.22-.08.25-.16.49-.23.74-.14.41-.25.85-.33,1.28-.03.16-.07.31-.1.48-.2,1.04-.3,2.12-.3,3.21,0,9.7,7.87,17.57,17.57,17.57s17.57-7.87,17.57-17.57c0-1.09-.1-2.17-.3-3.21ZM580.55,774.56c-.04-.22-.1-.42-.16-.64-.04-.16-.1-.33-.15-.49l-.12-.37c-.03-.12-.07-.25-.12-.37-.08-.25-.18-.49-.27-.74-.07-.18-.15-.35-.23-.53-.12-.29-.26-.57-.41-.86-.11-.23-.23-.47-.37-.68-.19-.36-.41-.7-.63-1.02-.22-.33-.45-.66-.7-.97-.08-.11-.16-.22-.25-.31-.08-.11-.18-.21-.26-.31-.31-.38-.66-.75-1-1.09-.3-.3-.61-.59-.93-.86s-.64-.53-.98-.79c-.23-.18-.45-.34-.7-.49-.27-.19-.56-.37-.86-.55-.29-.18-.59-.34-.89-.49-.34-.18-.68-.35-1.04-.49-.27-.12-.55-.23-.83-.34-.22-.1-.46-.18-.7-.25-.15-.05-.29-.09-.44-.14-.03-.01-.04-.03-.07-.03-.48-.15-.97-.26-1.46-.37-1.13-.25-2.32-.37-3.54-.37-.92,0-1.8.07-2.68.22-.23.03-.45.07-.68.12-.14.01-.27.05-.41.08-.2.04-.41.1-.61.15-1.22.3-2.38.74-3.47,1.3-.29.14-.55.29-.82.44-.4.22-.78.45-1.15.71-.3.22-.6.44-.89.66-.23.16-.46.35-.68.55-.25.22-.48.44-.71.66-.08.05-.15.12-.23.22-.08.07-.15.15-.22.22-.29.29-.56.59-.82.9-.11.12-.22.25-.31.37-.23.29-.45.57-.66.88-.23.33-.45.66-.67,1.01-.04.08-.08.15-.12.22-.22.37-.41.74-.6,1.12-.15.3-.29.59-.41.89-.05.14-.11.26-.16.4-.12.27-.22.57-.31.86-.11.29-.19.57-.27.87-.08.26-.15.53-.21.81-.07.3-.12.59-.18.89-.03.16-.05.34-.08.52-.12.83-.19,1.68-.19,2.54,0,9.7,7.86,17.57,17.56,17.57s17.57-7.87,17.57-17.57c0-1.38-.16-2.73-.46-4.02ZM640.94,558.22c-.4-.4-.81-.78-1.24-1.13-.37-.3-.75-.59-1.13-.85-.3-.22-.61-.42-.94-.62-.18-.11-.36-.22-.55-.31-.19-.11-.38-.2-.56-.3-.29-.15-.59-.3-.9-.42-.23-.11-.46-.2-.71-.3-.27-.11-.55-.2-.83-.3-.29-.1-.57-.18-.86-.26-.2-.07-.41-.12-.61-.16-.14-.04-.29-.07-.44-.1-.14-.04-.29-.07-.44-.08-.46-.1-.93-.16-1.41-.21-.29-.04-.59-.05-.89-.07-.3-.03-.6-.04-.9-.04s-.6.01-.9.04c-.6.03-1.19.08-1.78.18-.44.07-.87.15-1.3.25-.2.05-.42.11-.63.16-.38.1-.77.22-1.15.35-.37.12-.74.26-1.09.41-.46.19-.9.41-1.35.64-.3.16-.62.34-.92.52-.33.19-.64.4-.94.62-.38.26-.76.55-1.13.85-.42.35-.85.74-1.24,1.13-3.17,3.18-5.14,7.58-5.14,12.43,0,9.7,7.86,17.56,17.57,17.56s17.56-7.86,17.56-17.56c0-4.85-1.97-9.25-5.14-12.43ZM637.29,982.97c-.12-.57-.26-1.13-.44-1.68-.11-.33-.22-.66-.34-.98-.05-.16-.12-.33-.19-.48-.07-.15-.14-.31-.2-.46-.15-.36-.31-.7-.49-1.04-.16-.31-.34-.61-.52-.92-.22-.34-.44-.67-.67-1-.18-.27-.37-.53-.57-.78-.14-.18-.27-.34-.42-.52-.2-.25-.42-.49-.64-.71-.15-.16-.3-.31-.45-.45-.22-.22-.44-.42-.67-.63-.16-.15-.33-.29-.51-.42-.56-.48-1.16-.9-1.79-1.28-.16-.11-.34-.22-.52-.31-.27-.16-.56-.31-.85-.46-.11-.05-.22-.11-.33-.16-.26-.12-.52-.25-.78-.35-.52-.22-1.05-.42-1.61-.59-.55-.19-1.11-.33-1.68-.44-1.13-.25-2.32-.37-3.54-.37s-2.4.12-3.54.37c-.57.11-1.13.25-1.68.44-.56.16-1.09.37-1.61.59-.26.11-.52.23-.78.35-.11.05-.22.11-.33.16-.29.15-.57.3-.85.46-.18.1-.36.21-.52.31-.63.38-1.23.81-1.79,1.28-.18.14-.34.27-.51.42-.23.21-.45.41-.67.63-.15.14-.3.29-.44.45-.23.22-.45.47-.66.71-.15.18-.29.34-.42.52-.2.26-.4.52-.57.78-.23.33-.45.66-.67,1-.07.11-.15.23-.2.37-.1.16-.18.31-.27.48-.52.96-.94,1.97-1.27,3.03-.18.55-.31,1.11-.44,1.68-.23,1.15-.36,2.32-.36,3.54,0,9.7,7.87,17.57,17.57,17.57s17.57-7.87,17.57-17.57c0-1.22-.12-2.39-.36-3.54ZM615.82,636.58c-.04-.19-.08-.38-.12-.56-.1-.42-.22-.86-.34-1.28-.14-.46-.3-.93-.49-1.37-.14-.34-.29-.68-.45-1.02-.07-.16-.15-.31-.23-.46-.07-.15-.15-.3-.25-.45-.18-.34-.37-.67-.59-.98-.14-.23-.29-.44-.44-.66-.21-.29-.42-.57-.64-.85-.3-.37-.61-.72-.94-1.07-.15-.16-.31-.33-.48-.49-.27-.27-.57-.53-.86-.78-.11-.1-.2-.19-.31-.27-.11-.08-.2-.16-.31-.25-.2-.16-.42-.31-.63-.46-.22-.15-.44-.3-.66-.44-.23-.15-.45-.29-.68-.41-.23-.14-.46-.26-.7-.38-.31-.18-.63-.33-.94-.46-.04-.03-.1-.05-.14-.07-.33-.14-.66-.27-1-.4-.51-.21-1.01-.36-1.54-.49-.31-.08-.63-.15-.96-.22-.57-.12-1.15-.22-1.75-.26-.29-.04-.59-.05-.89-.07-.3-.03-.6-.04-.9-.04s-.6.01-.9.04c-.3.01-.6.03-.89.07-.57.04-1.15.12-1.69.25-.04.01-.08.03-.12.03-.23.05-.46.11-.7.16-.1.01-.18.04-.26.07-.22.05-.44.12-.66.19-.23.07-.45.14-.66.22-.38.14-.77.29-1.15.45-.37.16-.74.34-1.09.53-.36.18-.7.37-1.02.57-.34.21-.67.42-1,.66-.31.22-.63.45-.93.7-.26.2-.51.42-.74.64-.19.16-.37.33-.53.51-.19.19-.38.38-.57.59-.03.03-.05.05-.1.1-.22.25-.45.51-.67.78-.04.05-.1.12-.14.18-.22.29-.44.57-.63.86-.21.29-.4.59-.59.89-.18.29-.34.59-.51.89-.19.36-.37.72-.52,1.09-.16.35-.31.71-.45,1.08-.27.74-.49,1.5-.66,2.29-.07.3-.12.6-.18.92-.05.31-.1.64-.12.97-.03.18-.04.35-.05.53-.01.03-.01.05,0,.1t0,.03s-.01,0,0,.01c-.01.16-.03.33-.03.49-.03.23-.03.46-.03.7,0,.4.01.81.05,1.19,0,.23.03.45.05.67.05.6.14,1.19.26,1.75.12.55.26,1.09.42,1.63.15.48.31.94.51,1.39.14.34.29.67.44,1,.22.44.45.87.7,1.3.18.3.37.6.57.9.31.48.66.93,1.01,1.37.37.42.74.83,1.13,1.23.12.12.26.25.38.37.18.18.36.34.55.49.31.27.63.53.97.79.18.14.36.26.53.38.16.12.34.23.52.34.71.45,1.46.86,2.24,1.22.38.16.78.33,1.18.48.48.18.96.34,1.45.46.72.19,1.45.33,2.19.44.01.01.04.01.05.01.01.01.03.01.04,0,0,0,0,.01.01,0,.25.03.49.05.74.08.26.03.52.04.78.05.26.01.53.01.79.01s.53,0,.79-.01c.26-.01.52-.03.78-.05.25-.03.49-.05.74-.08.01.01.01,0,.01,0,.01.01.03.01.04,0,.03,0,.04,0,.05-.01.74-.11,1.46-.25,2.19-.44.49-.12.98-.29,1.45-.46.3-.11.6-.23.9-.35.44-.18.87-.4,1.3-.63.94-.51,1.84-1.09,2.68-1.75.29-.23.56-.46.82-.7.03-.01.05-.03.07-.05.2-.19.41-.38.61-.59.79-.79,1.52-1.67,2.15-2.6.31-.46.61-.96.87-1.45.22-.4.42-.82.6-1.24.08-.15.14-.31.21-.48.08-.16.14-.33.19-.49.12-.3.23-.61.33-.93.12-.42.25-.85.34-1.28.08-.34.15-.68.21-1.04.03-.12.05-.26.07-.4.03-.2.05-.42.07-.64.04-.31.07-.64.08-.97.01-.3.03-.6.03-.9,0-1.16-.11-2.28-.33-3.37ZM602.15,913.66c-.12-.57-.26-1.13-.44-1.68-.08-.29-.18-.56-.27-.82-.16-.44-.34-.86-.53-1.28-.1-.22-.21-.45-.33-.67-.16-.33-.34-.66-.53-.97-.18-.3-.36-.59-.55-.86-.48-.71-1-1.38-1.57-1.99-.2-.23-.42-.46-.66-.67-.37-.38-.75-.74-1.16-1.07-.38-.31-.77-.61-1.18-.89-.4-.29-.82-.55-1.26-.79-.18-.11-.36-.21-.55-.3-.36-.19-.71-.37-1.08-.52-.36-.16-.71-.31-1.08-.45-.27-.1-.55-.19-.82-.27-.55-.19-1.11-.33-1.68-.44-1.13-.25-2.32-.37-3.54-.37s-2.4.12-3.54.37c-.57.11-1.13.25-1.68.44-.27.08-.55.18-.82.27-.37.14-.72.29-1.08.45-.37.15-.72.33-1.08.52-.19.09-.37.19-.55.3-.87.49-1.68,1.07-2.45,1.69-.26.22-.51.44-.74.66-.14.12-.27.25-.4.38-.07.05-.14.12-.19.19-.77.77-1.45,1.6-2.05,2.49-.19.27-.37.56-.55.86-.19.31-.37.64-.53.97-.12.22-.23.45-.33.67-.19.42-.37.85-.53,1.28-.1.26-.19.53-.27.82-.18.55-.31,1.11-.44,1.68-.23,1.15-.36,2.32-.36,3.54,0,9.7,7.87,17.57,17.57,17.57s17.57-7.87,17.57-17.57c0-1.22-.12-2.39-.36-3.54ZM575.82,691.69c-9.7,0-17.57,7.87-17.57,17.57s7.87,17.57,17.57,17.57,17.57-7.86,17.57-17.57-7.87-17.57-17.57-17.57ZM589.07,844.67c-.03-.16-.07-.31-.1-.48-.08-.44-.19-.87-.33-1.3-.07-.22-.14-.41-.2-.63-.08-.25-.16-.49-.26-.72-.11-.29-.23-.57-.36-.85-.11-.23-.21-.46-.33-.68-.11-.23-.22-.45-.34-.67-.48-.85-1.01-1.65-1.63-2.4-.23-.3-.48-.59-.72-.86-.19-.22-.38-.41-.59-.62-.79-.79-1.67-1.52-2.6-2.15-.3-.2-.6-.4-.9-.57-.3-.18-.62-.34-.93-.51-.22-.12-.45-.23-.67-.33-.42-.19-.85-.37-1.28-.53-.26-.1-.53-.19-.82-.27-.55-.19-1.11-.33-1.68-.44-1.13-.25-2.32-.37-3.54-.37s-2.4.12-3.54.37c-.57.11-1.13.25-1.68.44-.29.08-.56.18-.82.27-.44.16-.86.34-1.28.53-.22.1-.45.21-.67.33-.31.16-.63.33-.93.51-.18.11-.34.21-.52.31-.37.25-.72.49-1.07.75-.22.15-.42.31-.63.49-.45.36-.87.75-1.28,1.16-.2.2-.4.4-.59.62-.11.12-.23.26-.34.4-.11.12-.22.26-.33.4-.26.3-.49.61-.7.93-.19.26-.37.53-.53.81-.04.05-.08.11-.12.18-.15.26-.3.52-.45.79-.16.31-.33.64-.48.97-.18.38-.34.78-.49,1.18-.04.07-.07.15-.08.23-.04.07-.07.15-.08.22-.08.25-.16.49-.23.74-.14.41-.25.85-.33,1.28-.03.16-.07.31-.1.48-.2,1.04-.3,2.12-.3,3.21,0,9.7,7.87,17.57,17.57,17.57s17.57-7.87,17.57-17.57c0-1.09-.1-2.17-.3-3.21ZM580.55,774.56c-.04-.22-.1-.42-.16-.64-.04-.16-.1-.33-.15-.49l-.12-.37c-.03-.12-.07-.25-.12-.37-.08-.25-.18-.49-.27-.74-.07-.18-.15-.35-.23-.53-.12-.29-.26-.57-.41-.86-.11-.23-.23-.47-.37-.68-.19-.36-.41-.7-.63-1.02-.22-.33-.45-.66-.7-.97-.08-.11-.16-.22-.25-.31-.08-.11-.18-.21-.26-.31-.31-.38-.66-.75-1-1.09-.3-.3-.61-.59-.93-.86s-.64-.53-.98-.79c-.23-.18-.45-.34-.7-.49-.27-.19-.56-.37-.86-.55-.29-.18-.59-.34-.89-.49-.34-.18-.68-.35-1.04-.49-.27-.12-.55-.23-.83-.34-.22-.1-.46-.18-.7-.25-.15-.05-.29-.09-.44-.14-.03-.01-.04-.03-.07-.03-.48-.15-.97-.26-1.46-.37-1.13-.25-2.32-.37-3.54-.37-.92,0-1.8.07-2.68.22-.23.03-.45.07-.68.12-.14.01-.27.05-.41.08-.2.04-.41.1-.61.15-1.22.3-2.38.74-3.47,1.3-.29.14-.55.29-.82.44-.4.22-.78.45-1.15.71-.3.22-.6.44-.89.66-.23.16-.46.35-.68.55-.25.22-.48.44-.71.66-.08.05-.15.12-.23.22-.08.07-.15.15-.22.22-.29.29-.56.59-.82.9-.11.12-.22.25-.31.37-.23.29-.45.57-.66.88-.23.33-.45.66-.67,1.01-.04.08-.08.15-.12.22-.22.37-.41.74-.6,1.12-.15.3-.29.59-.41.89-.05.14-.11.26-.16.4-.12.27-.22.57-.31.86-.11.29-.19.57-.27.87-.08.26-.15.53-.21.81-.07.3-.12.59-.18.89-.03.16-.05.34-.08.52-.12.83-.19,1.68-.19,2.54,0,9.7,7.86,17.57,17.56,17.57s17.57-7.87,17.57-17.57c0-1.38-.16-2.73-.46-4.02Z"/>
  <path class="cls-5" d="M850.86,1289.91h-171.88c23.49-36.41,52.55-68.93,85.94-96.23,33.39,27.3,62.45,59.82,85.94,96.23Z"/>
  <path class="cls-12" d="M874.19,239.94h0c-2.45,4.99-5.01,9.91-7.66,14.77-25.7,47.11-60.35,88.81-101.6,122.54-41.25-33.73-75.9-75.43-101.6-122.54-2.65-4.86-5.22-9.78-7.66-14.76h0s218.52-.01,218.52-.01Z"/>
  <path class="cls-13" d="M825.82,547.67h-121.79c18.17-19.97,38.62-37.89,60.89-53.27,22.27,15.38,42.72,33.3,60.89,53.27Z"/>
  <path class="cls-14" d="M868.54,605.4h-207.23c9.13-15.38,19.41-30.04,30.74-43.86h145.75c11.33,13.81,21.61,28.47,30.74,43.86Z"/>
  <path class="cls-15" d="M895.99,663.11h-262.13c5.53-15.04,12.09-29.7,19.66-43.86h222.81c7.57,14.15,14.13,28.81,19.66,43.86Z"/>
  <path class="cls-17" d="M911.81,720.82h-293.77c2.75-14.85,6.44-29.51,11.07-43.86h271.64c4.63,14.35,8.32,29.01,11.07,43.86Z"/>
  <path class="cls-28" d="M704.04,1023.26h121.76c-18.17,19.97-38.61,37.9-60.88,53.28-22.27-15.39-42.71-33.31-60.88-53.28Z"/>
  <path class="cls-29" d="M868.53,965.53c-9.13,15.38-19.41,30.06-30.75,43.87h-145.7c-11.34-13.81-21.63-28.49-30.75-43.87h207.21Z"/>
  <path class="cls-30" d="M895.99,907.82c-5.53,15.04-12.09,29.7-19.66,43.86h-222.81c-7.57-14.15-14.13-28.81-19.66-43.86h262.13Z"/>
  <path class="cls-31" d="M911.81,850.11c-2.75,14.85-6.44,29.51-11.07,43.86h-271.64c-4.63-14.35-8.32-29.01-11.07-43.86h293.77Z"/>
  <path class="cls-16" d="M917.7,792.4c-.29,14.72-1.49,29.36-3.59,43.86h-298.37c-2.1-14.5-3.31-29.14-3.59-43.86h305.55Z"/>
  <path class="cls-19" d="M917.7,778.55h-305.55c.29-14.71,1.49-29.36,3.59-43.87h298.37c2.1,14.51,3.31,29.16,3.59,43.87Z"/>
  <g>
    <path class="cls-18" d="M646.08,570.65c0,9.7-7.86,17.56-17.56,17.56s-17.57-7.86-17.57-17.56,7.86-17.57,17.57-17.57,17.56,7.86,17.56,17.57Z"/>
    <path class="cls-20" d="M616.16,639.95c0,9.71-7.86,17.57-17.57,17.57s-17.57-7.86-17.57-17.57,7.87-17.56,17.57-17.56,17.57,7.86,17.57,17.56Z"/>
    <path class="cls-21" d="M593.39,709.26c0,9.71-7.87,17.57-17.57,17.57s-17.57-7.86-17.57-17.57,7.87-17.57,17.57-17.57,17.57,7.87,17.57,17.57Z"/>
    <path class="cls-9" d="M581.02,778.57c0,9.7-7.86,17.57-17.57,17.57s-17.56-7.87-17.56-17.57,7.86-17.57,17.56-17.57,17.57,7.87,17.57,17.57Z"/>
    <path class="cls-37" d="M589.38,847.88c0,9.7-7.87,17.57-17.57,17.57s-17.57-7.87-17.57-17.57,7.87-17.57,17.57-17.57,17.57,7.87,17.57,17.57Z"/>
    <circle class="cls-23" cx="584.94" cy="917.19" r="17.57"/>
    <path class="cls-38" d="M637.65,986.5c0,9.7-7.87,17.57-17.57,17.57s-17.57-7.87-17.57-17.57,7.87-17.57,17.57-17.57,17.57,7.87,17.57,17.57Z"/>
  </g>
  <g>
    <path class="cls-36" d="M966.41,796.14c9.7,0,17.56-7.87,17.56-17.57,0-9.7-7.86-17.57-17.56-17.57s-17.57,7.87-17.57,17.57c0,9.7,7.86,17.57,17.57,17.57Z"/>
    <path class="cls-22" d="M958.04,865.45c9.7,0,17.57-7.87,17.57-17.57s-7.87-17.57-17.57-17.57-17.57,7.87-17.57,17.57c0,9.7,7.87,17.57,17.57,17.57Z"/>
    <path class="cls-39" d="M971.6,709.26c0-9.7-7.87-17.57-17.57-17.57-9.7,0-17.57,7.87-17.57,17.57s7.87,17.57,17.57,17.57c9.7,0,17.57-7.86,17.57-17.57Z"/>
    <circle class="cls-27" cx="944.91" cy="917.19" r="17.57"/>
    <path class="cls-25" d="M948.84,639.95c0-9.7-7.87-17.56-17.57-17.56-9.71,0-17.57,7.86-17.57,17.56,0,9.71,7.86,17.57,17.57,17.57,9.7,0,17.57-7.86,17.57-17.57Z"/>
    <path class="cls-24" d="M892.2,986.5c0,9.7,7.87,17.57,17.57,17.57,9.7,0,17.57-7.87,17.57-17.57,0-9.7-7.87-17.57-17.57-17.57-9.7,0-17.57,7.87-17.57,17.57Z"/>
    <path class="cls-26" d="M883.77,570.65c0,9.7,7.86,17.56,17.56,17.56,9.71,0,17.57-7.86,17.57-17.56,0-9.71-7.86-17.57-17.57-17.57-9.7,0-17.56,7.86-17.56,17.57Z"/>
    <path class="cls-33" d="M983.77,776.03c-.03-.18-.05-.35-.08-.52-.05-.3-.11-.59-.18-.89-.05-.27-.12-.55-.21-.81-.08-.3-.16-.59-.27-.87-.1-.29-.19-.59-.31-.86-.05-.14-.11-.26-.16-.4-.12-.3-.26-.59-.41-.89-.19-.38-.38-.75-.6-1.12-.04-.07-.08-.14-.12-.22-.22-.35-.44-.68-.67-1.01-.21-.3-.42-.59-.66-.88-.1-.12-.21-.25-.31-.37-.26-.31-.53-.62-.82-.9-.14-.15-.29-.29-.44-.44-.15-.15-.3-.29-.46-.42-.89-.81-1.86-1.5-2.91-2.1-.31-.18-.63-.35-.94-.51-.05-.04-.12-.07-.19-.1-.33-.16-.67-.31-1.02-.45-.33-.14-.67-.26-1.01-.37-.61-.22-1.24-.4-1.9-.52-.33-.07-.66-.14-1-.19-.87-.15-1.76-.22-2.68-.22-1.22,0-2.4.12-3.54.37-.51.11-.98.22-1.46.37-.03,0-.04.01-.07.03-.15.04-.29.08-.44.14-.23.07-.48.15-.7.25-.29.11-.56.22-.83.34-.36.14-.7.31-1.04.49-.3.15-.6.31-.89.49-.3.18-.59.35-.86.55-.25.15-.46.31-.7.49-.34.26-.67.52-.98.79s-.63.56-.93.86c-.34.34-.68.71-1,1.09-.08.11-.18.2-.26.31-.08.1-.16.21-.25.31-.25.31-.48.64-.7.97-.22.33-.44.67-.63,1.02-.14.22-.26.45-.37.68-.15.29-.29.57-.41.86-.08.18-.16.35-.23.53-.1.25-.19.49-.27.74-.05.12-.1.25-.12.37-.04.12-.08.25-.12.37-.05.16-.11.33-.15.49-.07.22-.12.42-.16.64-.3,1.28-.46,2.64-.46,4.02,0,9.7,7.86,17.57,17.57,17.57s17.56-7.87,17.56-17.57c0-.86-.07-1.71-.19-2.54ZM975.32,844.67c-.03-.16-.07-.31-.1-.48-.08-.44-.19-.87-.33-1.3-.07-.22-.14-.41-.21-.63-.08-.25-.16-.49-.26-.72-.11-.29-.23-.57-.36-.85-.11-.23-.2-.46-.33-.68-.11-.23-.22-.45-.34-.67-.48-.85-1.01-1.65-1.63-2.4-.23-.3-.48-.59-.72-.86-.19-.22-.38-.41-.59-.62-.79-.79-1.67-1.52-2.6-2.15-.3-.2-.6-.4-.9-.57s-.61-.34-.93-.51c-.22-.12-.45-.23-.67-.33-.42-.19-.85-.37-1.28-.53-.26-.1-.53-.19-.82-.27-.55-.19-1.11-.33-1.68-.44-1.13-.25-2.32-.37-3.54-.37s-2.4.12-3.54.37c-.57.11-1.13.25-1.68.44-.29.08-.56.18-.82.27-.44.16-.86.34-1.28.53-.22.1-.45.21-.67.33-.31.16-.63.33-.93.51-.18.11-.34.21-.52.31-.37.25-.72.49-1.07.75-.22.15-.42.31-.63.49-.45.36-.87.75-1.28,1.16-.2.2-.4.4-.59.62-.11.12-.23.26-.34.4-.11.12-.22.26-.33.4-.26.3-.49.61-.7.93-.19.26-.37.53-.53.81-.04.05-.08.11-.12.18-.15.26-.3.52-.45.79-.16.31-.33.64-.48.97-.18.38-.34.78-.49,1.18-.04.07-.07.15-.08.23-.04.07-.07.15-.08.22-.08.25-.16.49-.23.74-.14.41-.25.85-.33,1.28-.03.16-.07.31-.1.48-.2,1.04-.3,2.12-.3,3.21,0,9.7,7.87,17.57,17.57,17.57s17.57-7.87,17.57-17.57c0-1.09-.1-2.17-.3-3.21ZM954.03,691.69c-9.7,0-17.57,7.87-17.57,17.57s7.87,17.57,17.57,17.57,17.57-7.86,17.57-17.57-7.87-17.57-17.57-17.57ZM962.13,913.66c-.12-.57-.26-1.13-.44-1.68-.08-.29-.18-.56-.27-.82-.16-.44-.34-.86-.53-1.28-.1-.22-.21-.45-.33-.67-.16-.33-.34-.66-.53-.97-.18-.3-.36-.59-.55-.86-.48-.71-1-1.38-1.57-1.99-.2-.23-.42-.46-.66-.67-.37-.38-.75-.74-1.16-1.07-.38-.31-.77-.61-1.18-.89-.4-.29-.82-.55-1.26-.79-.18-.11-.36-.21-.55-.3-.36-.19-.71-.37-1.08-.52-.36-.16-.71-.31-1.08-.45-.27-.1-.55-.19-.82-.27-.55-.19-1.11-.33-1.68-.44-1.13-.25-2.32-.37-3.54-.37s-2.4.12-3.54.37c-.57.11-1.13.25-1.68.44-.27.08-.55.18-.82.27-.37.14-.72.29-1.08.45-.37.15-.72.33-1.08.52-.19.09-.37.19-.55.3-.87.49-1.68,1.07-2.45,1.69-.26.22-.51.44-.74.66-.14.12-.27.25-.4.38-.07.05-.14.12-.19.19-.77.77-1.45,1.6-2.05,2.49-.19.27-.37.56-.55.86-.19.31-.37.64-.53.97-.12.22-.23.45-.33.67-.19.42-.37.85-.53,1.28-.1.26-.19.53-.27.82-.18.55-.31,1.11-.44,1.68-.23,1.15-.36,2.32-.36,3.54,0,9.7,7.87,17.57,17.57,17.57s17.57-7.87,17.57-17.57c0-1.22-.12-2.39-.36-3.54ZM948.81,639.26c0-.16-.01-.33-.03-.49.01-.01,0-.01,0-.01t0-.03s.01-.05,0-.1c-.01-.18-.03-.35-.05-.53-.03-.33-.07-.66-.12-.97-.05-.31-.11-.62-.18-.92-.16-.79-.38-1.56-.66-2.29-.14-.37-.29-.72-.45-1.08-.15-.37-.33-.74-.52-1.09-.16-.3-.33-.6-.51-.89-.19-.3-.38-.6-.59-.89-.19-.29-.41-.57-.63-.86-.04-.05-.1-.12-.14-.18-.22-.27-.45-.53-.67-.78l-.1-.1c-.19-.2-.38-.4-.57-.59-.16-.18-.34-.34-.53-.51-.23-.22-.48-.44-.74-.64-.3-.25-.61-.48-.93-.7-.33-.23-.66-.45-1-.66-.33-.2-.67-.4-1.02-.57-.36-.19-.72-.37-1.09-.53-.38-.16-.77-.31-1.15-.45-.2-.08-.42-.15-.66-.22-.22-.07-.44-.14-.66-.19-.08-.03-.16-.05-.26-.07-.23-.05-.46-.11-.7-.16-.04,0-.08-.01-.12-.03-.55-.11-1.12-.19-1.69-.25-.29-.04-.59-.05-.89-.07-.3-.03-.6-.04-.9-.04s-.6.01-.9.04c-.3.01-.6.03-.89.07-.6.04-1.18.14-1.75.26-.33.07-.64.14-.96.22-.53.14-1.04.29-1.54.49-.34.12-.67.26-1,.4-.04.01-.1.04-.14.07-.31.14-.63.29-.94.46-.23.12-.46.25-.7.38-.23.12-.45.26-.68.41-.22.14-.44.29-.66.44-.2.15-.42.3-.63.46-.11.08-.21.16-.31.25-.11.08-.21.18-.31.27-.29.25-.59.51-.86.78-.16.16-.33.33-.48.49-.33.34-.64.7-.94,1.07-.22.27-.44.56-.64.85-.15.22-.3.42-.44.66-.22.31-.41.64-.59.98-.1.15-.18.3-.25.45-.08.15-.16.3-.23.46-.16.34-.31.68-.45,1.02-.19.44-.36.9-.49,1.37-.12.42-.25.86-.34,1.28-.04.18-.08.37-.12.56-.22,1.09-.33,2.21-.33,3.37,0,.3.01.6.03.9.01.33.04.66.08.97.01.22.04.44.07.64.01.14.04.27.07.4.05.36.12.7.21,1.04.1.44.22.86.34,1.28.27.9.63,1.79,1.07,2.62.12.26.26.52.41.78.15.27.31.55.49.82.16.26.34.53.53.79.19.25.38.51.57.75.2.25.41.49.61.72.2.23.42.46.66.7.2.2.41.4.61.59.01.03.04.04.07.05.26.23.53.46.82.7.83.66,1.74,1.24,2.68,1.75.42.23.86.45,1.3.63.3.12.6.25.9.35.46.18.96.34,1.45.46.72.19,1.45.33,2.19.44.01.01.03.01.05.01.01.01.03.01.04,0,0,0,0,.01.01,0,.25.03.49.05.74.08.26.03.52.04.78.05.26.01.53.01.79.01s.53,0,.79-.01c.26-.01.52-.03.78-.05.25-.03.49-.05.74-.08.01.01.01,0,.01,0,.01.01.03.01.04,0,.01,0,.04,0,.05-.01.74-.11,1.46-.25,2.19-.44.49-.12.97-.29,1.45-.46.4-.15.79-.31,1.17-.48.78-.36,1.53-.77,2.24-1.22.18-.11.36-.22.52-.34.18-.12.36-.25.53-.38.34-.26.66-.52.97-.79.33-.27.64-.56.93-.86.4-.4.77-.81,1.13-1.23.36-.44.7-.89,1.01-1.37.2-.3.4-.6.57-.9.25-.42.48-.86.7-1.3.15-.33.3-.66.44-1,.19-.45.36-.92.51-1.39.16-.53.3-1.08.42-1.63.12-.56.21-1.15.26-1.75.03-.22.05-.44.05-.67.04-.38.05-.79.05-1.19,0-.23,0-.46-.03-.7ZM926.99,982.97c-.12-.57-.26-1.13-.44-1.68-.11-.33-.22-.66-.34-.98-.05-.16-.12-.33-.19-.48-.07-.15-.14-.31-.21-.46-.15-.36-.31-.7-.49-1.04-.16-.31-.34-.61-.52-.92-.22-.34-.44-.67-.67-1-.18-.27-.37-.53-.57-.78-.14-.18-.27-.34-.42-.52-.2-.25-.42-.49-.64-.71-.15-.16-.3-.31-.45-.45-.22-.22-.44-.42-.67-.63-.16-.15-.33-.29-.51-.42-.56-.48-1.16-.9-1.79-1.28-.16-.11-.34-.22-.52-.31-.27-.16-.56-.31-.85-.46-.11-.05-.22-.11-.33-.16-.26-.12-.52-.25-.78-.35-.52-.22-1.05-.42-1.61-.59-.55-.19-1.11-.33-1.68-.44-1.13-.25-2.32-.37-3.54-.37s-2.4.12-3.54.37c-.57.11-1.13.25-1.68.44-.56.16-1.09.37-1.61.59-.26.11-.52.23-.78.35l-.33.16c-.29.15-.57.3-.85.46-.18.1-.36.21-.52.31-.63.38-1.23.81-1.79,1.28-.18.14-.34.27-.51.42-.23.21-.45.41-.67.63-.15.14-.3.29-.44.45-.23.22-.45.47-.66.71-.15.18-.29.34-.42.52-.21.26-.4.52-.57.78-.23.33-.45.66-.67,1-.07.11-.15.23-.2.37-.1.16-.18.31-.27.48-.52.96-.94,1.97-1.27,3.03-.18.55-.31,1.11-.44,1.68-.23,1.15-.36,2.32-.36,3.54,0,9.7,7.87,17.57,17.57,17.57s17.57-7.87,17.57-17.57c0-1.22-.12-2.39-.36-3.54ZM913.77,558.22c-.4-.4-.81-.78-1.24-1.13-.37-.3-.75-.59-1.13-.85-.3-.22-.62-.42-.94-.62-.3-.18-.61-.35-.92-.52-.45-.23-.89-.45-1.35-.64-.36-.15-.72-.29-1.09-.41-.38-.14-.76-.26-1.15-.35-.2-.05-.42-.11-.63-.16-.42-.1-.86-.18-1.3-.25-.59-.1-1.17-.15-1.78-.18-.3-.03-.6-.04-.9-.04s-.6.01-.9.04c-.3.01-.6.03-.89.07-.57.04-1.15.12-1.69.25-.23.05-.46.11-.7.16-.16.04-.33.08-.51.14-.03,0-.05,0-.07.01-.38.11-.77.23-1.15.37-.31.11-.63.23-.93.36-.18.07-.34.15-.51.23-.29.12-.56.26-.83.41-.15.08-.3.15-.44.23l-.49.29c-.33.19-.64.4-.94.62-.38.26-.77.55-1.13.85-.42.35-.85.74-1.24,1.13-3.17,3.18-5.14,7.58-5.14,12.43,0,9.7,7.86,17.56,17.56,17.56s17.57-7.86,17.57-17.56c0-4.85-1.97-9.25-5.14-12.43ZM983.77,776.03c-.03-.18-.05-.35-.08-.52-.05-.3-.11-.59-.18-.89-.05-.27-.12-.55-.21-.81-.08-.3-.16-.59-.27-.87-.1-.29-.19-.59-.31-.86-.05-.14-.11-.26-.16-.4-.12-.3-.26-.59-.41-.89-.19-.38-.38-.75-.6-1.12-.04-.07-.08-.14-.12-.22-.22-.35-.44-.68-.67-1.01-.21-.3-.42-.59-.66-.88-.1-.12-.21-.25-.31-.37-.26-.31-.53-.62-.82-.9-.14-.15-.29-.29-.44-.44-.15-.15-.3-.29-.46-.42-.89-.81-1.86-1.5-2.91-2.1-.31-.18-.63-.35-.94-.51-.05-.04-.12-.07-.19-.1-.33-.16-.67-.31-1.02-.45-.33-.14-.67-.26-1.01-.37-.61-.22-1.24-.4-1.9-.52-.33-.07-.66-.14-1-.19-.87-.15-1.76-.22-2.68-.22-1.22,0-2.4.12-3.54.37-.51.11-.98.22-1.46.37-.03,0-.04.01-.07.03-.15.04-.29.08-.44.14-.23.07-.48.15-.7.25-.29.11-.56.22-.83.34-.36.14-.7.31-1.04.49-.3.15-.6.31-.89.49-.3.18-.59.35-.86.55-.25.15-.46.31-.7.49-.34.26-.67.52-.98.79s-.63.56-.93.86c-.34.34-.68.71-1,1.09-.08.11-.18.2-.26.31-.08.1-.16.21-.25.31-.25.31-.48.64-.7.97-.22.33-.44.67-.63,1.02-.14.22-.26.45-.37.68-.15.29-.29.57-.41.86-.08.18-.16.35-.23.53-.1.25-.19.49-.27.74-.05.12-.1.25-.12.37-.04.12-.08.25-.12.37-.05.16-.11.33-.15.49-.07.22-.12.42-.16.64-.3,1.28-.46,2.64-.46,4.02,0,9.7,7.86,17.57,17.57,17.57s17.56-7.87,17.56-17.57c0-.86-.07-1.71-.19-2.54ZM975.32,844.67c-.03-.16-.07-.31-.1-.48-.08-.44-.19-.87-.33-1.3-.07-.22-.14-.41-.21-.63-.08-.25-.16-.49-.26-.72-.11-.29-.23-.57-.36-.85-.11-.23-.2-.46-.33-.68-.11-.23-.22-.45-.34-.67-.48-.85-1.01-1.65-1.63-2.4-.23-.3-.48-.59-.72-.86-.19-.22-.38-.41-.59-.62-.79-.79-1.67-1.52-2.6-2.15-.3-.2-.6-.4-.9-.57s-.61-.34-.93-.51c-.22-.12-.45-.23-.67-.33-.42-.19-.85-.37-1.28-.53-.26-.1-.53-.19-.82-.27-.55-.19-1.11-.33-1.68-.44-1.13-.25-2.32-.37-3.54-.37s-2.4.12-3.54.37c-.57.11-1.13.25-1.68.44-.29.08-.56.18-.82.27-.44.16-.86.34-1.28.53-.22.1-.45.21-.67.33-.31.16-.63.33-.93.51-.18.11-.34.21-.52.31-.37.25-.72.49-1.07.75-.22.15-.42.31-.63.49-.45.36-.87.75-1.28,1.16-.2.2-.4.4-.59.62-.11.12-.23.26-.34.4-.11.12-.22.26-.33.4-.26.3-.49.61-.7.93-.19.26-.37.53-.53.81-.04.05-.08.11-.12.18-.15.26-.3.52-.45.79-.16.31-.33.64-.48.97-.18.38-.34.78-.49,1.18-.04.07-.07.15-.08.23-.04.07-.07.15-.08.22-.08.25-.16.49-.23.74-.14.41-.25.85-.33,1.28-.03.16-.07.31-.1.48-.2,1.04-.3,2.12-.3,3.21,0,9.7,7.87,17.57,17.57,17.57s17.57-7.87,17.57-17.57c0-1.09-.1-2.17-.3-3.21ZM954.03,691.69c-9.7,0-17.57,7.87-17.57,17.57s7.87,17.57,17.57,17.57,17.57-7.86,17.57-17.57-7.87-17.57-17.57-17.57ZM962.13,913.66c-.12-.57-.26-1.13-.44-1.68-.08-.29-.18-.56-.27-.82-.16-.44-.34-.86-.53-1.28-.1-.22-.21-.45-.33-.67-.16-.33-.34-.66-.53-.97-.18-.3-.36-.59-.55-.86-.48-.71-1-1.38-1.57-1.99-.2-.23-.42-.46-.66-.67-.37-.38-.75-.74-1.16-1.07-.38-.31-.77-.61-1.18-.89-.4-.29-.82-.55-1.26-.79-.18-.11-.36-.21-.55-.3-.36-.19-.71-.37-1.08-.52-.36-.16-.71-.31-1.08-.45-.27-.1-.55-.19-.82-.27-.55-.19-1.11-.33-1.68-.44-1.13-.25-2.32-.37-3.54-.37s-2.4.12-3.54.37c-.57.11-1.13.25-1.68.44-.27.08-.55.18-.82.27-.37.14-.72.29-1.08.45-.37.15-.72.33-1.08.52-.19.09-.37.19-.55.3-.87.49-1.68,1.07-2.45,1.69-.26.22-.51.44-.74.66-.14.12-.27.25-.4.38-.07.05-.14.12-.19.19-.77.77-1.45,1.6-2.05,2.49-.19.27-.37.56-.55.86-.19.31-.37.64-.53.97-.12.22-.23.45-.33.67-.19.42-.37.85-.53,1.28-.1.26-.19.53-.27.82-.18.55-.31,1.11-.44,1.68-.23,1.15-.36,2.32-.36,3.54,0,9.7,7.87,17.57,17.57,17.57s17.57-7.87,17.57-17.57c0-1.22-.12-2.39-.36-3.54ZM948.81,639.26c0-.16-.01-.33-.03-.49.01-.01,0-.01,0-.01t0-.03s.01-.05,0-.1c-.01-.18-.03-.35-.05-.53-.03-.33-.07-.66-.12-.97-.05-.31-.11-.62-.18-.92-.16-.79-.38-1.56-.66-2.29-.14-.37-.29-.72-.45-1.08-.15-.37-.33-.74-.52-1.09-.16-.3-.33-.6-.51-.89-.19-.3-.38-.6-.59-.89-.19-.29-.41-.57-.63-.86-.04-.05-.1-.12-.14-.18-.22-.27-.45-.53-.67-.78l-.1-.1c-.19-.2-.38-.4-.57-.59-.16-.18-.34-.34-.53-.51-.23-.22-.48-.44-.74-.64-.3-.25-.61-.48-.93-.7-.33-.23-.66-.45-1-.66-.33-.2-.67-.4-1.02-.57-.36-.19-.72-.37-1.09-.53-.38-.16-.77-.31-1.15-.45-.2-.08-.42-.15-.66-.22-.22-.07-.44-.14-.66-.19-.08-.03-.16-.05-.26-.07-.23-.05-.46-.11-.7-.16-.04,0-.08-.01-.12-.03-.55-.11-1.12-.19-1.69-.25-.29-.04-.59-.05-.89-.07-.3-.03-.6-.04-.9-.04s-.6.01-.9.04c-.3.01-.6.03-.89.07-.6.04-1.18.14-1.75.26-.33.07-.64.14-.96.22-.53.14-1.04.29-1.54.49-.34.12-.67.26-1,.4-.04.01-.1.04-.14.07-.31.14-.63.29-.94.46-.23.12-.46.25-.7.38-.23.12-.45.26-.68.41-.22.14-.44.29-.66.44-.2.15-.42.3-.63.46-.11.08-.21.16-.31.25-.11.08-.21.18-.31.27-.29.25-.59.51-.86.78-.16.16-.33.33-.48.49-.33.34-.64.7-.94,1.07-.22.27-.44.56-.64.85-.15.22-.3.42-.44.66-.22.31-.41.64-.59.98-.1.15-.18.3-.25.45-.08.15-.16.3-.23.46-.16.34-.31.68-.45,1.02-.19.44-.36.9-.49,1.37-.12.42-.25.86-.34,1.28-.04.18-.08.37-.12.56-.22,1.09-.33,2.21-.33,3.37,0,.3.01.6.03.9.01.33.04.66.08.97.01.22.04.44.07.64.01.14.04.27.07.4.05.36.12.7.21,1.04.1.44.22.86.34,1.28.27.9.63,1.79,1.07,2.62.12.26.26.52.41.78.15.27.31.55.49.82.16.26.34.53.53.79.19.25.38.51.57.75.2.25.41.49.61.72.2.23.42.46.66.7.2.2.41.4.61.59.01.03.04.04.07.05.26.23.53.46.82.7.83.66,1.74,1.24,2.68,1.75.42.23.86.45,1.3.63.3.12.6.25.9.35.46.18.96.34,1.45.46.72.19,1.45.33,2.19.44.01.01.03.01.05.01.01.01.03.01.04,0,0,0,0,.01.01,0,.25.03.49.05.74.08.26.03.52.04.78.05.26.01.53.01.79.01s.53,0,.79-.01c.26-.01.52-.03.78-.05.25-.03.49-.05.74-.08.01.01.01,0,.01,0,.01.01.03.01.04,0,.01,0,.04,0,.05-.01.74-.11,1.46-.25,2.19-.44.49-.12.97-.29,1.45-.46.4-.15.79-.31,1.17-.48.78-.36,1.53-.77,2.24-1.22.18-.11.36-.22.52-.34.18-.12.36-.25.53-.38.34-.26.66-.52.97-.79.33-.27.64-.56.93-.86.4-.4.77-.81,1.13-1.23.36-.44.7-.89,1.01-1.37.2-.3.4-.6.57-.9.25-.42.48-.86.7-1.3.15-.33.3-.66.44-1,.19-.45.36-.92.51-1.39.16-.53.3-1.08.42-1.63.12-.56.21-1.15.26-1.75.03-.22.05-.44.05-.67.04-.38.05-.79.05-1.19,0-.23,0-.46-.03-.7ZM978.12,241.07v.03c-7.92,20.36-17.15,40.22-27.63,59.43-27.52,50.44-63.39,95.84-105.72,134.13,45.02,36.1,83.01,80.72,111.31,131.08,37.5,66.74,57.33,142.75,57.33,219.74s-19.82,152.97-57.33,219.71c-28.3,50.36-66.29,94.98-111.31,131.08,42.33,38.28,78.2,83.68,105.72,134.13,3.46,6.34,6.78,12.75,9.96,19.24,138.2-4.41,262.9-62.22,354.16-153.47,95-95.01,153.76-226.27,153.76-371.23,0-278.27-216.5-505.97-490.26-523.85ZM1322.46,619.02v19.06h-19.03v-19.06h19.03ZM1325.87,719.52v28.61h-28.6v-28.61h28.6ZM1286.52,559.12h23.1v20.13h-23.1v-20.13ZM1234.76,499.24h16.26v18.81h-16.26v-18.81ZM1230.57,614.03h35.4v35.39h-35.4v-35.39ZM1222.62,713.61h51.3v51.32h-51.3v-51.32ZM1180.2,545.27h40.84v40.84h-40.84v-40.84ZM1111.97,818.39h26.03v14.14h-26.03v-14.14ZM1042.66,743.09v-42.78h72.73v42.78h-72.73ZM1115.54,847.5h59.9v59.91h-59.9v-59.91ZM1145.48,807.33v-66.69h66.71v66.69h-66.71ZM1182.13,695.61v-26.53h18.5v26.53h-18.5ZM1180.2,616.03h15.19v22.05h-15.19v-22.05ZM1166.59,688.89h-57.18v-57.18h57.18v57.18ZM1115.39,581.39v-30.37h22.61v30.37h-22.61ZM1099.2,458.83h46.29v46.27h-46.29v-46.27ZM1093.57,684.48h-67.17v-59.88h67.17v59.88ZM1073.89,611.77h-56.47v-56.48h56.47v56.48ZM1020.42,921.94v-74.43h69.31v74.43h-69.31ZM1071.32,941.62v33.79h-57.75v-33.79h57.75ZM1049.93,489.39h18.83v23.96h-18.83v-23.96ZM968.22,529.93v-49.64h49.62v49.64h-49.62ZM1013.57,1087.5h-35.51v-29.09h35.51v29.09ZM1018.71,1048.14h-45.36v-51.55h45.36v51.55ZM1083.73,1093.48h-44.06v-32.5h44.06v32.5ZM1098.51,1045.58h-49.01v-48.99h49.01v48.99ZM1102.13,832.53h-75.73v-75.74h75.73v75.74ZM1137.2,1091.35h-24.37v-24.37h24.37v24.37ZM1137.2,1036.81h-22.88v-22.88h22.88v22.88ZM1138,966.82h-26.03v-43.09h26.03v43.09ZM1184.7,1093.48h-23.1v-26.5h23.1v26.5ZM1217.64,1004.08h-51.73v-51.74h51.73v51.74ZM1249.31,1051.79h-22.46v-22.46h22.46v22.46ZM1259.16,865.21h-44.92v-44.92h44.92v44.92ZM1304.09,998.61h-28.6v-28.58h28.6v28.58ZM1304.78,944.16h-36.77v-36.75h36.77v36.75ZM1280.27,847.5v-50.36h50.37v50.36h-50.37ZM926.99,982.97c-.12-.57-.26-1.13-.44-1.68-.11-.33-.22-.66-.34-.98-.05-.16-.12-.33-.19-.48-.07-.15-.14-.31-.21-.46-.15-.36-.31-.7-.49-1.04-.16-.31-.34-.61-.52-.92-.22-.34-.44-.67-.67-1-.18-.27-.37-.53-.57-.78-.14-.18-.27-.34-.42-.52-.2-.25-.42-.49-.64-.71-.15-.16-.3-.31-.45-.45-.22-.22-.44-.42-.67-.63-.16-.15-.33-.29-.51-.42-.56-.48-1.16-.9-1.79-1.28-.16-.11-.34-.22-.52-.31-.27-.16-.56-.31-.85-.46-.11-.05-.22-.11-.33-.16-.26-.12-.52-.25-.78-.35-.52-.22-1.05-.42-1.61-.59-.55-.19-1.11-.33-1.68-.44-1.13-.25-2.32-.37-3.54-.37s-2.4.12-3.54.37c-.57.11-1.13.25-1.68.44-.56.16-1.09.37-1.61.59-.26.11-.52.23-.78.35l-.33.16c-.29.15-.57.3-.85.46-.18.1-.36.21-.52.31-.63.38-1.23.81-1.79,1.28-.18.14-.34.27-.51.42-.23.21-.45.41-.67.63-.15.14-.3.29-.44.45-.23.22-.45.47-.66.71-.15.18-.29.34-.42.52-.21.26-.4.52-.57.78-.23.33-.45.66-.67,1-.07.11-.15.23-.2.37-.1.16-.18.31-.27.48-.52.96-.94,1.97-1.27,3.03-.18.55-.31,1.11-.44,1.68-.23,1.15-.36,2.32-.36,3.54,0,9.7,7.87,17.57,17.57,17.57s17.57-7.87,17.57-17.57c0-1.22-.12-2.39-.36-3.54ZM913.77,558.22c-.4-.4-.81-.78-1.24-1.13-.37-.3-.75-.59-1.13-.85-.3-.22-.62-.42-.94-.62-.3-.18-.61-.35-.92-.52-.45-.23-.89-.45-1.35-.64-.36-.15-.72-.29-1.09-.41-.38-.14-.76-.26-1.15-.35-.2-.05-.42-.11-.63-.16-.42-.1-.86-.18-1.3-.25-.59-.1-1.17-.15-1.78-.18-.3-.03-.6-.04-.9-.04s-.6.01-.9.04c-.3.01-.6.03-.89.07-.57.04-1.15.12-1.69.25-.23.05-.46.11-.7.16-.16.04-.33.08-.51.14-.03,0-.05,0-.07.01-.38.11-.77.23-1.15.37-.31.11-.63.23-.93.36-.18.07-.34.15-.51.23-.29.12-.56.26-.83.41-.15.08-.3.15-.44.23l-.49.29c-.33.19-.64.4-.94.62-.38.26-.77.55-1.13.85-.42.35-.85.74-1.24,1.13-3.17,3.18-5.14,7.58-5.14,12.43,0,9.7,7.86,17.56,17.56,17.56s17.57-7.86,17.57-17.56c0-4.85-1.97-9.25-5.14-12.43ZM983.77,776.03c-.03-.18-.05-.35-.08-.52-.05-.3-.11-.59-.18-.89-.05-.27-.12-.55-.21-.81-.08-.3-.16-.59-.27-.87-.1-.29-.19-.59-.31-.86-.05-.14-.11-.26-.16-.4-.12-.3-.26-.59-.41-.89-.19-.38-.38-.75-.6-1.12-.04-.07-.08-.14-.12-.22-.22-.35-.44-.68-.67-1.01-.21-.3-.42-.59-.66-.88-.1-.12-.21-.25-.31-.37-.26-.31-.53-.62-.82-.9-.14-.15-.29-.29-.44-.44-.15-.15-.3-.29-.46-.42-.89-.81-1.86-1.5-2.91-2.1-.31-.18-.63-.35-.94-.51-.05-.04-.12-.07-.19-.1-.33-.16-.67-.31-1.02-.45-.33-.14-.67-.26-1.01-.37-.61-.22-1.24-.4-1.9-.52-.33-.07-.66-.14-1-.19-.87-.15-1.76-.22-2.68-.22-1.22,0-2.4.12-3.54.37-.51.11-.98.22-1.46.37-.03,0-.04.01-.07.03-.15.04-.29.08-.44.14-.23.07-.48.15-.7.25-.29.11-.56.22-.83.34-.36.14-.7.31-1.04.49-.3.15-.6.31-.89.49-.3.18-.59.35-.86.55-.25.15-.46.31-.7.49-.34.26-.67.52-.98.79s-.63.56-.93.86c-.34.34-.68.71-1,1.09-.08.11-.18.2-.26.31-.08.1-.16.21-.25.31-.25.31-.48.64-.7.97-.22.33-.44.67-.63,1.02-.14.22-.26.45-.37.68-.15.29-.29.57-.41.86-.08.18-.16.35-.23.53-.1.25-.19.49-.27.74-.05.12-.1.25-.12.37-.04.12-.08.25-.12.37-.05.16-.11.33-.15.49-.07.22-.12.42-.16.64-.3,1.28-.46,2.64-.46,4.02,0,9.7,7.86,17.57,17.57,17.57s17.56-7.87,17.56-17.57c0-.86-.07-1.71-.19-2.54ZM975.32,844.67c-.03-.16-.07-.31-.1-.48-.08-.44-.19-.87-.33-1.3-.07-.22-.14-.41-.21-.63-.08-.25-.16-.49-.26-.72-.11-.29-.23-.57-.36-.85-.11-.23-.2-.46-.33-.68-.11-.23-.22-.45-.34-.67-.48-.85-1.01-1.65-1.63-2.4-.23-.3-.48-.59-.72-.86-.19-.22-.38-.41-.59-.62-.79-.79-1.67-1.52-2.6-2.15-.3-.2-.6-.4-.9-.57s-.61-.34-.93-.51c-.22-.12-.45-.23-.67-.33-.42-.19-.85-.37-1.28-.53-.26-.1-.53-.19-.82-.27-.55-.19-1.11-.33-1.68-.44-1.13-.25-2.32-.37-3.54-.37s-2.4.12-3.54.37c-.57.11-1.13.25-1.68.44-.29.08-.56.18-.82.27-.44.16-.86.34-1.28.53-.22.1-.45.21-.67.33-.31.16-.63.33-.93.51-.18.11-.34.21-.52.31-.37.25-.72.49-1.07.75-.22.15-.42.31-.63.49-.45.36-.87.75-1.28,1.16-.2.2-.4.4-.59.62-.11.12-.23.26-.34.4-.11.12-.22.26-.33.4-.26.3-.49.61-.7.93-.19.26-.37.53-.53.81-.04.05-.08.11-.12.18-.15.26-.3.52-.45.79-.16.31-.33.64-.48.97-.18.38-.34.78-.49,1.18-.04.07-.07.15-.08.23-.04.07-.07.15-.08.22-.08.25-.16.49-.23.74-.14.41-.25.85-.33,1.28-.03.16-.07.31-.1.48-.2,1.04-.3,2.12-.3,3.21,0,9.7,7.87,17.57,17.57,17.57s17.57-7.87,17.57-17.57c0-1.09-.1-2.17-.3-3.21ZM954.03,691.69c-9.7,0-17.57,7.87-17.57,17.57s7.87,17.57,17.57,17.57,17.57-7.86,17.57-17.57-7.87-17.57-17.57-17.57ZM962.13,913.66c-.12-.57-.26-1.13-.44-1.68-.08-.29-.18-.56-.27-.82-.16-.44-.34-.86-.53-1.28-.1-.22-.21-.45-.33-.67-.16-.33-.34-.66-.53-.97-.18-.3-.36-.59-.55-.86-.48-.71-1-1.38-1.57-1.99-.2-.23-.42-.46-.66-.67-.37-.38-.75-.74-1.16-1.07-.38-.31-.77-.61-1.18-.89-.4-.29-.82-.55-1.26-.79-.18-.11-.36-.21-.55-.3-.36-.19-.71-.37-1.08-.52-.36-.16-.71-.31-1.08-.45-.27-.1-.55-.19-.82-.27-.55-.19-1.11-.33-1.68-.44-1.13-.25-2.32-.37-3.54-.37s-2.4.12-3.54.37c-.57.11-1.13.25-1.68.44-.27.08-.55.18-.82.27-.37.14-.72.29-1.08.45-.37.15-.72.33-1.08.52-.19.09-.37.19-.55.3-.87.49-1.68,1.07-2.45,1.69-.26.22-.51.44-.74.66-.14.12-.27.25-.4.38-.07.05-.14.12-.19.19-.77.77-1.45,1.6-2.05,2.49-.19.27-.37.56-.55.86-.19.31-.37.64-.53.97-.12.22-.23.45-.33.67-.19.42-.37.85-.53,1.28-.1.26-.19.53-.27.82-.18.55-.31,1.11-.44,1.68-.23,1.15-.36,2.32-.36,3.54,0,9.7,7.87,17.57,17.57,17.57s17.57-7.87,17.57-17.57c0-1.22-.12-2.39-.36-3.54ZM948.81,639.26c0-.16-.01-.33-.03-.49.01-.01,0-.01,0-.01t0-.03s.01-.05,0-.1c-.01-.18-.03-.35-.05-.53-.03-.33-.07-.66-.12-.97-.05-.31-.11-.62-.18-.92-.16-.79-.38-1.56-.66-2.29-.14-.37-.29-.72-.45-1.08-.15-.37-.33-.74-.52-1.09-.16-.3-.33-.6-.51-.89-.19-.3-.38-.6-.59-.89-.19-.29-.41-.57-.63-.86-.04-.05-.1-.12-.14-.18-.22-.27-.45-.53-.67-.78l-.1-.1c-.19-.2-.38-.4-.57-.59-.16-.18-.34-.34-.53-.51-.23-.22-.48-.44-.74-.64-.3-.25-.61-.48-.93-.7-.33-.23-.66-.45-1-.66-.33-.2-.67-.4-1.02-.57-.36-.19-.72-.37-1.09-.53-.38-.16-.77-.31-1.15-.45-.2-.08-.42-.15-.66-.22-.22-.07-.44-.14-.66-.19-.08-.03-.16-.05-.26-.07-.23-.05-.46-.11-.7-.16-.04,0-.08-.01-.12-.03-.55-.11-1.12-.19-1.69-.25-.29-.04-.59-.05-.89-.07-.3-.03-.6-.04-.9-.04s-.6.01-.9.04c-.3.01-.6.03-.89.07-.6.04-1.18.14-1.75.26-.33.07-.64.14-.96.22-.53.14-1.04.29-1.54.49-.34.12-.67.26-1,.4-.04.01-.1.04-.14.07-.31.14-.63.29-.94.46-.23.12-.46.25-.7.38-.23.12-.45.26-.68.41-.22.14-.44.29-.66.44-.2.15-.42.3-.63.46-.11.08-.21.16-.31.25-.11.08-.21.18-.31.27-.29.25-.59.51-.86.78-.16.16-.33.33-.48.49-.33.34-.64.7-.94,1.07-.22.27-.44.56-.64.85-.15.22-.3.42-.44.66-.22.31-.41.64-.59.98-.1.15-.18.3-.25.45-.08.15-.16.3-.23.46-.16.34-.31.68-.45,1.02-.19.44-.36.9-.49,1.37-.12.42-.25.86-.34,1.28-.04.18-.08.37-.12.56-.22,1.09-.33,2.21-.33,3.37,0,.3.01.6.03.9.01.33.04.66.08.97.01.22.04.44.07.64.01.14.04.27.07.4.05.36.12.7.21,1.04.1.44.22.86.34,1.28.27.9.63,1.79,1.07,2.62.12.26.26.52.41.78.15.27.31.55.49.82.16.26.34.53.53.79.19.25.38.51.57.75.2.25.41.49.61.72.2.23.42.46.66.7.2.2.41.4.61.59.01.03.04.04.07.05.26.23.53.46.82.7.83.66,1.74,1.24,2.68,1.75.42.23.86.45,1.3.63.3.12.6.25.9.35.46.18.96.34,1.45.46.72.19,1.45.33,2.19.44.01.01.03.01.05.01.01.01.03.01.04,0,0,0,0,.01.01,0,.25.03.49.05.74.08.26.03.52.04.78.05.26.01.53.01.79.01s.53,0,.79-.01c.26-.01.52-.03.78-.05.25-.03.49-.05.74-.08.01.01.01,0,.01,0,.01.01.03.01.04,0,.01,0,.04,0,.05-.01.74-.11,1.46-.25,2.19-.44.49-.12.97-.29,1.45-.46.4-.15.79-.31,1.17-.48.78-.36,1.53-.77,2.24-1.22.18-.11.36-.22.52-.34.18-.12.36-.25.53-.38.34-.26.66-.52.97-.79.33-.27.64-.56.93-.86.4-.4.77-.81,1.13-1.23.36-.44.7-.89,1.01-1.37.2-.3.4-.6.57-.9.25-.42.48-.86.7-1.3.15-.33.3-.66.44-1,.19-.45.36-.92.51-1.39.16-.53.3-1.08.42-1.63.12-.56.21-1.15.26-1.75.03-.22.05-.44.05-.67.04-.38.05-.79.05-1.19,0-.23,0-.46-.03-.7ZM926.99,982.97c-.12-.57-.26-1.13-.44-1.68-.11-.33-.22-.66-.34-.98-.05-.16-.12-.33-.19-.48-.07-.15-.14-.31-.21-.46-.15-.36-.31-.7-.49-1.04-.16-.31-.34-.61-.52-.92-.22-.34-.44-.67-.67-1-.18-.27-.37-.53-.57-.78-.14-.18-.27-.34-.42-.52-.2-.25-.42-.49-.64-.71-.15-.16-.3-.31-.45-.45-.22-.22-.44-.42-.67-.63-.16-.15-.33-.29-.51-.42-.56-.48-1.16-.9-1.79-1.28-.16-.11-.34-.22-.52-.31-.27-.16-.56-.31-.85-.46-.11-.05-.22-.11-.33-.16-.26-.12-.52-.25-.78-.35-.52-.22-1.05-.42-1.61-.59-.55-.19-1.11-.33-1.68-.44-1.13-.25-2.32-.37-3.54-.37s-2.4.12-3.54.37c-.57.11-1.13.25-1.68.44-.56.16-1.09.37-1.61.59-.26.11-.52.23-.78.35l-.33.16c-.29.15-.57.3-.85.46-.18.1-.36.21-.52.31-.63.38-1.23.81-1.79,1.28-.18.14-.34.27-.51.42-.23.21-.45.41-.67.63-.15.14-.3.29-.44.45-.23.22-.45.47-.66.71-.15.18-.29.34-.42.52-.21.26-.4.52-.57.78-.23.33-.45.66-.67,1-.07.11-.15.23-.2.37-.1.16-.18.31-.27.48-.52.96-.94,1.97-1.27,3.03-.18.55-.31,1.11-.44,1.68-.23,1.15-.36,2.32-.36,3.54,0,9.7,7.87,17.57,17.57,17.57s17.57-7.87,17.57-17.57c0-1.22-.12-2.39-.36-3.54ZM913.77,558.22c-.4-.4-.81-.78-1.24-1.13-.37-.3-.75-.59-1.13-.85-.3-.22-.62-.42-.94-.62-.3-.18-.61-.35-.92-.52-.45-.23-.89-.45-1.35-.64-.36-.15-.72-.29-1.09-.41-.38-.14-.76-.26-1.15-.35-.2-.05-.42-.11-.63-.16-.42-.1-.86-.18-1.3-.25-.59-.1-1.17-.15-1.78-.18-.3-.03-.6-.04-.9-.04s-.6.01-.9.04c-.3.01-.6.03-.89.07-.57.04-1.15.12-1.69.25-.23.05-.46.11-.7.16-.16.04-.33.08-.51.14-.03,0-.05,0-.07.01-.38.11-.77.23-1.15.37-.31.11-.63.23-.93.36-.18.07-.34.15-.51.23-.29.12-.56.26-.83.41-.15.08-.3.15-.44.23l-.49.29c-.33.19-.64.4-.94.62-.38.26-.77.55-1.13.85-.42.35-.85.74-1.24,1.13-3.17,3.18-5.14,7.58-5.14,12.43,0,9.7,7.86,17.56,17.56,17.56s17.57-7.86,17.57-17.56c0-4.85-1.97-9.25-5.14-12.43ZM913.77,558.22c-.4-.4-.81-.78-1.24-1.13-.37-.3-.75-.59-1.13-.85-.3-.22-.62-.42-.94-.62-.3-.18-.61-.35-.92-.52-.45-.23-.89-.45-1.35-.64-.36-.15-.72-.29-1.09-.41-.38-.14-.76-.26-1.15-.35-.2-.05-.42-.11-.63-.16-.42-.1-.86-.18-1.3-.25-.59-.1-1.17-.15-1.78-.18-.3-.03-.6-.04-.9-.04s-.6.01-.9.04c-.3.01-.6.03-.89.07-.57.04-1.15.12-1.69.25-.23.05-.46.11-.7.16-.16.04-.33.08-.51.14-.03,0-.05,0-.07.01-.38.11-.77.23-1.15.37-.31.11-.63.23-.93.36-.18.07-.34.15-.51.23-.29.12-.56.26-.83.41-.15.08-.3.15-.44.23l-.49.29c-.33.19-.64.4-.94.62-.38.26-.77.55-1.13.85-.42.35-.85.74-1.24,1.13-3.17,3.18-5.14,7.58-5.14,12.43,0,9.7,7.86,17.56,17.56,17.56s17.57-7.86,17.57-17.56c0-4.85-1.97-9.25-5.14-12.43ZM926.99,982.97c-.12-.57-.26-1.13-.44-1.68-.11-.33-.22-.66-.34-.98-.05-.16-.12-.33-.19-.48-.07-.15-.14-.31-.21-.46-.15-.36-.31-.7-.49-1.04-.16-.31-.34-.61-.52-.92-.22-.34-.44-.67-.67-1-.18-.27-.37-.53-.57-.78-.14-.18-.27-.34-.42-.52-.2-.25-.42-.49-.64-.71-.15-.16-.3-.31-.45-.45-.22-.22-.44-.42-.67-.63-.16-.15-.33-.29-.51-.42-.56-.48-1.16-.9-1.79-1.28-.16-.11-.34-.22-.52-.31-.27-.16-.56-.31-.85-.46-.11-.05-.22-.11-.33-.16-.26-.12-.52-.25-.78-.35-.52-.22-1.05-.42-1.61-.59-.55-.19-1.11-.33-1.68-.44-1.13-.25-2.32-.37-3.54-.37s-2.4.12-3.54.37c-.57.11-1.13.25-1.68.44-.56.16-1.09.37-1.61.59-.26.11-.52.23-.78.35l-.33.16c-.29.15-.57.3-.85.46-.18.1-.36.21-.52.31-.63.38-1.23.81-1.79,1.28-.18.14-.34.27-.51.42-.23.21-.45.41-.67.63-.15.14-.3.29-.44.45-.23.22-.45.47-.66.71-.15.18-.29.34-.42.52-.21.26-.4.52-.57.78-.23.33-.45.66-.67,1-.07.11-.15.23-.2.37-.1.16-.18.31-.27.48-.52.96-.94,1.97-1.27,3.03-.18.55-.31,1.11-.44,1.68-.23,1.15-.36,2.32-.36,3.54,0,9.7,7.87,17.57,17.57,17.57s17.57-7.87,17.57-17.57c0-1.22-.12-2.39-.36-3.54ZM948.81,639.26c0-.16-.01-.33-.03-.49.01-.01,0-.01,0-.01t0-.03s.01-.05,0-.1c-.01-.18-.03-.35-.05-.53-.03-.33-.07-.66-.12-.97-.05-.31-.11-.62-.18-.92-.16-.79-.38-1.56-.66-2.29-.14-.37-.29-.72-.45-1.08-.15-.37-.33-.74-.52-1.09-.16-.3-.33-.6-.51-.89-.19-.3-.38-.6-.59-.89-.19-.29-.41-.57-.63-.86-.04-.05-.1-.12-.14-.18-.22-.27-.45-.53-.67-.78l-.1-.1c-.19-.2-.38-.4-.57-.59-.16-.18-.34-.34-.53-.51-.23-.22-.48-.44-.74-.64-.3-.25-.61-.48-.93-.7-.33-.23-.66-.45-1-.66-.33-.2-.67-.4-1.02-.57-.36-.19-.72-.37-1.09-.53-.38-.16-.77-.31-1.15-.45-.2-.08-.42-.15-.66-.22-.22-.07-.44-.14-.66-.19-.08-.03-.16-.05-.26-.07-.23-.05-.46-.11-.7-.16-.04,0-.08-.01-.12-.03-.55-.11-1.12-.19-1.69-.25-.29-.04-.59-.05-.89-.07-.3-.03-.6-.04-.9-.04s-.6.01-.9.04c-.3.01-.6.03-.89.07-.6.04-1.18.14-1.75.26-.33.07-.64.14-.96.22-.53.14-1.04.29-1.54.49-.34.12-.67.26-1,.4-.04.01-.1.04-.14.07-.31.14-.63.29-.94.46-.23.12-.46.25-.7.38-.23.12-.45.26-.68.41-.22.14-.44.29-.66.44-.2.15-.42.3-.63.46-.11.08-.21.16-.31.25-.11.08-.21.18-.31.27-.29.25-.59.51-.86.78-.16.16-.33.33-.48.49-.33.34-.64.7-.94,1.07-.22.27-.44.56-.64.85-.15.22-.3.42-.44.66-.22.31-.41.64-.59.98-.1.15-.18.3-.25.45-.08.15-.16.3-.23.46-.16.34-.31.68-.45,1.02-.19.44-.36.9-.49,1.37-.12.42-.25.86-.34,1.28-.04.18-.08.37-.12.56-.22,1.09-.33,2.21-.33,3.37,0,.3.01.6.03.9.01.33.04.66.08.97.01.22.04.44.07.64.01.14.04.27.07.4.05.36.12.7.21,1.04.1.44.22.86.34,1.28.27.9.63,1.79,1.07,2.62.12.26.26.52.41.78.15.27.31.55.49.82.16.26.34.53.53.79.19.25.38.51.57.75.2.25.41.49.61.72.2.23.42.46.66.7.2.2.41.4.61.59.01.03.04.04.07.05.26.23.53.46.82.7.83.66,1.74,1.24,2.68,1.75.42.23.86.45,1.3.63.3.12.6.25.9.35.46.18.96.34,1.45.46.72.19,1.45.33,2.19.44.01.01.03.01.05.01.01.01.03.01.04,0,0,0,0,.01.01,0,.25.03.49.05.74.08.26.03.52.04.78.05.26.01.53.01.79.01s.53,0,.79-.01c.26-.01.52-.03.78-.05.25-.03.49-.05.74-.08.01.01.01,0,.01,0,.01.01.03.01.04,0,.01,0,.04,0,.05-.01.74-.11,1.46-.25,2.19-.44.49-.12.97-.29,1.45-.46.4-.15.79-.31,1.17-.48.78-.36,1.53-.77,2.24-1.22.18-.11.36-.22.52-.34.18-.12.36-.25.53-.38.34-.26.66-.52.97-.79.33-.27.64-.56.93-.86.4-.4.77-.81,1.13-1.23.36-.44.7-.89,1.01-1.37.2-.3.4-.6.57-.9.25-.42.48-.86.7-1.3.15-.33.3-.66.44-1,.19-.45.36-.92.51-1.39.16-.53.3-1.08.42-1.63.12-.56.21-1.15.26-1.75.03-.22.05-.44.05-.67.04-.38.05-.79.05-1.19,0-.23,0-.46-.03-.7ZM962.13,913.66c-.12-.57-.26-1.13-.44-1.68-.08-.29-.18-.56-.27-.82-.16-.44-.34-.86-.53-1.28-.1-.22-.21-.45-.33-.67-.16-.33-.34-.66-.53-.97-.18-.3-.36-.59-.55-.86-.48-.71-1-1.38-1.57-1.99-.2-.23-.42-.46-.66-.67-.37-.38-.75-.74-1.16-1.07-.38-.31-.77-.61-1.18-.89-.4-.29-.82-.55-1.26-.79-.18-.11-.36-.21-.55-.3-.36-.19-.71-.37-1.08-.52-.36-.16-.71-.31-1.08-.45-.27-.1-.55-.19-.82-.27-.55-.19-1.11-.33-1.68-.44-1.13-.25-2.32-.37-3.54-.37s-2.4.12-3.54.37c-.57.11-1.13.25-1.68.44-.27.08-.55.18-.82.27-.37.14-.72.29-1.08.45-.37.15-.72.33-1.08.52-.19.09-.37.19-.55.3-.87.49-1.68,1.07-2.45,1.69-.26.22-.51.44-.74.66-.14.12-.27.25-.4.38-.07.05-.14.12-.19.19-.77.77-1.45,1.6-2.05,2.49-.19.27-.37.56-.55.86-.19.31-.37.64-.53.97-.12.22-.23.45-.33.67-.19.42-.37.85-.53,1.28-.1.26-.19.53-.27.82-.18.55-.31,1.11-.44,1.68-.23,1.15-.36,2.32-.36,3.54,0,9.7,7.87,17.57,17.57,17.57s17.57-7.87,17.57-17.57c0-1.22-.12-2.39-.36-3.54ZM954.03,691.69c-9.7,0-17.57,7.87-17.57,17.57s7.87,17.57,17.57,17.57,17.57-7.86,17.57-17.57-7.87-17.57-17.57-17.57ZM975.32,844.67c-.03-.16-.07-.31-.1-.48-.08-.44-.19-.87-.33-1.3-.07-.22-.14-.41-.21-.63-.08-.25-.16-.49-.26-.72-.11-.29-.23-.57-.36-.85-.11-.23-.2-.46-.33-.68-.11-.23-.22-.45-.34-.67-.48-.85-1.01-1.65-1.63-2.4-.23-.3-.48-.59-.72-.86-.19-.22-.38-.41-.59-.62-.79-.79-1.67-1.52-2.6-2.15-.3-.2-.6-.4-.9-.57s-.61-.34-.93-.51c-.22-.12-.45-.23-.67-.33-.42-.19-.85-.37-1.28-.53-.26-.1-.53-.19-.82-.27-.55-.19-1.11-.33-1.68-.44-1.13-.25-2.32-.37-3.54-.37s-2.4.12-3.54.37c-.57.11-1.13.25-1.68.44-.29.08-.56.18-.82.27-.44.16-.86.34-1.28.53-.22.1-.45.21-.67.33-.31.16-.63.33-.93.51-.18.11-.34.21-.52.31-.37.25-.72.49-1.07.75-.22.15-.42.31-.63.49-.45.36-.87.75-1.28,1.16-.2.2-.4.4-.59.62-.11.12-.23.26-.34.4-.11.12-.22.26-.33.4-.26.3-.49.61-.7.93-.19.26-.37.53-.53.81-.04.05-.08.11-.12.18-.15.26-.3.52-.45.79-.16.31-.33.64-.48.97-.18.38-.34.78-.49,1.18-.04.07-.07.15-.08.23-.04.07-.07.15-.08.22-.08.25-.16.49-.23.74-.14.41-.25.85-.33,1.28-.03.16-.07.31-.1.48-.2,1.04-.3,2.12-.3,3.21,0,9.7,7.87,17.57,17.57,17.57s17.57-7.87,17.57-17.57c0-1.09-.1-2.17-.3-3.21ZM983.77,776.03c-.03-.18-.05-.35-.08-.52-.05-.3-.11-.59-.18-.89-.05-.27-.12-.55-.21-.81-.08-.3-.16-.59-.27-.87-.1-.29-.19-.59-.31-.86-.05-.14-.11-.26-.16-.4-.12-.3-.26-.59-.41-.89-.19-.38-.38-.75-.6-1.12-.04-.07-.08-.14-.12-.22-.22-.35-.44-.68-.67-1.01-.21-.3-.42-.59-.66-.88-.1-.12-.21-.25-.31-.37-.26-.31-.53-.62-.82-.9-.14-.15-.29-.29-.44-.44-.15-.15-.3-.29-.46-.42-.89-.81-1.86-1.5-2.91-2.1-.31-.18-.63-.35-.94-.51-.05-.04-.12-.07-.19-.1-.33-.16-.67-.31-1.02-.45-.33-.14-.67-.26-1.01-.37-.61-.22-1.24-.4-1.9-.52-.33-.07-.66-.14-1-.19-.87-.15-1.76-.22-2.68-.22-1.22,0-2.4.12-3.54.37-.51.11-.98.22-1.46.37-.03,0-.04.01-.07.03-.15.04-.29.08-.44.14-.23.07-.48.15-.7.25-.29.11-.56.22-.83.34-.36.14-.7.31-1.04.49-.3.15-.6.31-.89.49-.3.18-.59.35-.86.55-.25.15-.46.31-.7.49-.34.26-.67.52-.98.79s-.63.56-.93.86c-.34.34-.68.71-1,1.09-.08.11-.18.2-.26.31-.08.1-.16.21-.25.31-.25.31-.48.64-.7.97-.22.33-.44.67-.63,1.02-.14.22-.26.45-.37.68-.15.29-.29.57-.41.86-.08.18-.16.35-.23.53-.1.25-.19.49-.27.74-.05.12-.1.25-.12.37-.04.12-.08.25-.12.37-.05.16-.11.33-.15.49-.07.22-.12.42-.16.64-.3,1.28-.46,2.64-.46,4.02,0,9.7,7.86,17.57,17.57,17.57s17.56-7.87,17.56-17.57c0-.86-.07-1.71-.19-2.54ZM913.77,558.22c-.4-.4-.81-.78-1.24-1.13-.37-.3-.75-.59-1.13-.85-.3-.22-.62-.42-.94-.62-.3-.18-.61-.35-.92-.52-.45-.23-.89-.45-1.35-.64-.36-.15-.72-.29-1.09-.41-.38-.14-.76-.26-1.15-.35-.2-.05-.42-.11-.63-.16-.42-.1-.86-.18-1.3-.25-.59-.1-1.17-.15-1.78-.18-.3-.03-.6-.04-.9-.04s-.6.01-.9.04c-.3.01-.6.03-.89.07-.57.04-1.15.12-1.69.25-.23.05-.46.11-.7.16-.16.04-.33.08-.51.14-.03,0-.05,0-.07.01-.38.11-.77.23-1.15.37-.31.11-.63.23-.93.36-.18.07-.34.15-.51.23-.29.12-.56.26-.83.41-.15.08-.3.15-.44.23l-.49.29c-.33.19-.64.4-.94.62-.38.26-.77.55-1.13.85-.42.35-.85.74-1.24,1.13-3.17,3.18-5.14,7.58-5.14,12.43,0,9.7,7.86,17.56,17.56,17.56s17.57-7.86,17.57-17.56c0-4.85-1.97-9.25-5.14-12.43ZM926.99,982.97c-.12-.57-.26-1.13-.44-1.68-.11-.33-.22-.66-.34-.98-.05-.16-.12-.33-.19-.48-.07-.15-.14-.31-.21-.46-.15-.36-.31-.7-.49-1.04-.16-.31-.34-.61-.52-.92-.22-.34-.44-.67-.67-1-.18-.27-.37-.53-.57-.78-.14-.18-.27-.34-.42-.52-.2-.25-.42-.49-.64-.71-.15-.16-.3-.31-.45-.45-.22-.22-.44-.42-.67-.63-.16-.15-.33-.29-.51-.42-.56-.48-1.16-.9-1.79-1.28-.16-.11-.34-.22-.52-.31-.27-.16-.56-.31-.85-.46-.11-.05-.22-.11-.33-.16-.26-.12-.52-.25-.78-.35-.52-.22-1.05-.42-1.61-.59-.55-.19-1.11-.33-1.68-.44-1.13-.25-2.32-.37-3.54-.37s-2.4.12-3.54.37c-.57.11-1.13.25-1.68.44-.56.16-1.09.37-1.61.59-.26.11-.52.23-.78.35l-.33.16c-.29.15-.57.3-.85.46-.18.1-.36.21-.52.31-.63.38-1.23.81-1.79,1.28-.18.14-.34.27-.51.42-.23.21-.45.41-.67.63-.15.14-.3.29-.44.45-.23.22-.45.47-.66.71-.15.18-.29.34-.42.52-.21.26-.4.52-.57.78-.23.33-.45.66-.67,1-.07.11-.15.23-.2.37-.1.16-.18.31-.27.48-.52.96-.94,1.97-1.27,3.03-.18.55-.31,1.11-.44,1.68-.23,1.15-.36,2.32-.36,3.54,0,9.7,7.87,17.57,17.57,17.57s17.57-7.87,17.57-17.57c0-1.22-.12-2.39-.36-3.54ZM948.81,639.26c0-.16-.01-.33-.03-.49.01-.01,0-.01,0-.01t0-.03s.01-.05,0-.1c-.01-.18-.03-.35-.05-.53-.03-.33-.07-.66-.12-.97-.05-.31-.11-.62-.18-.92-.16-.79-.38-1.56-.66-2.29-.14-.37-.29-.72-.45-1.08-.15-.37-.33-.74-.52-1.09-.16-.3-.33-.6-.51-.89-.19-.3-.38-.6-.59-.89-.19-.29-.41-.57-.63-.86-.04-.05-.1-.12-.14-.18-.22-.27-.45-.53-.67-.78l-.1-.1c-.19-.2-.38-.4-.57-.59-.16-.18-.34-.34-.53-.51-.23-.22-.48-.44-.74-.64-.3-.25-.61-.48-.93-.7-.33-.23-.66-.45-1-.66-.33-.2-.67-.4-1.02-.57-.36-.19-.72-.37-1.09-.53-.38-.16-.77-.31-1.15-.45-.2-.08-.42-.15-.66-.22-.22-.07-.44-.14-.66-.19-.08-.03-.16-.05-.26-.07-.23-.05-.46-.11-.7-.16-.04,0-.08-.01-.12-.03-.55-.11-1.12-.19-1.69-.25-.29-.04-.59-.05-.89-.07-.3-.03-.6-.04-.9-.04s-.6.01-.9.04c-.3.01-.6.03-.89.07-.6.04-1.18.14-1.75.26-.33.07-.64.14-.96.22-.53.14-1.04.29-1.54.49-.34.12-.67.26-1,.4-.04.01-.1.04-.14.07-.31.14-.63.29-.94.46-.23.12-.46.25-.7.38-.23.12-.45.26-.68.41-.22.14-.44.29-.66.44-.2.15-.42.3-.63.46-.11.08-.21.16-.31.25-.11.08-.21.18-.31.27-.29.25-.59.51-.86.78-.16.16-.33.33-.48.49-.33.34-.64.7-.94,1.07-.22.27-.44.56-.64.85-.15.22-.3.42-.44.66-.22.31-.41.64-.59.98-.1.15-.18.3-.25.45-.08.15-.16.3-.23.46-.16.34-.31.68-.45,1.02-.19.44-.36.9-.49,1.37-.12.42-.25.86-.34,1.28-.04.18-.08.37-.12.56-.22,1.09-.33,2.21-.33,3.37,0,.3.01.6.03.9.01.33.04.66.08.97.01.22.04.44.07.64.01.14.04.27.07.4.05.36.12.7.21,1.04.1.44.22.86.34,1.28.27.9.63,1.79,1.07,2.62.12.26.26.52.41.78.15.27.31.55.49.82.16.26.34.53.53.79.19.25.38.51.57.75.2.25.41.49.61.72.2.23.42.46.66.7.2.2.41.4.61.59.01.03.04.04.07.05.26.23.53.46.82.7.83.66,1.74,1.24,2.68,1.75.42.23.86.45,1.3.63.3.12.6.25.9.35.46.18.96.34,1.45.46.72.19,1.45.33,2.19.44.01.01.03.01.05.01.01.01.03.01.04,0,0,0,0,.01.01,0,.25.03.49.05.74.08.26.03.52.04.78.05.26.01.53.01.79.01s.53,0,.79-.01c.26-.01.52-.03.78-.05.25-.03.49-.05.74-.08.01.01.01,0,.01,0,.01.01.03.01.04,0,.01,0,.04,0,.05-.01.74-.11,1.46-.25,2.19-.44.49-.12.97-.29,1.45-.46.4-.15.79-.31,1.17-.48.78-.36,1.53-.77,2.24-1.22.18-.11.36-.22.52-.34.18-.12.36-.25.53-.38.34-.26.66-.52.97-.79.33-.27.64-.56.93-.86.4-.4.77-.81,1.13-1.23.36-.44.7-.89,1.01-1.37.2-.3.4-.6.57-.9.25-.42.48-.86.7-1.3.15-.33.3-.66.44-1,.19-.45.36-.92.51-1.39.16-.53.3-1.08.42-1.63.12-.56.21-1.15.26-1.75.03-.22.05-.44.05-.67.04-.38.05-.79.05-1.19,0-.23,0-.46-.03-.7ZM962.13,913.66c-.12-.57-.26-1.13-.44-1.68-.08-.29-.18-.56-.27-.82-.16-.44-.34-.86-.53-1.28-.1-.22-.21-.45-.33-.67-.16-.33-.34-.66-.53-.97-.18-.3-.36-.59-.55-.86-.48-.71-1-1.38-1.57-1.99-.2-.23-.42-.46-.66-.67-.37-.38-.75-.74-1.16-1.07-.38-.31-.77-.61-1.18-.89-.4-.29-.82-.55-1.26-.79-.18-.11-.36-.21-.55-.3-.36-.19-.71-.37-1.08-.52-.36-.16-.71-.31-1.08-.45-.27-.1-.55-.19-.82-.27-.55-.19-1.11-.33-1.68-.44-1.13-.25-2.32-.37-3.54-.37s-2.4.12-3.54.37c-.57.11-1.13.25-1.68.44-.27.08-.55.18-.82.27-.37.14-.72.29-1.08.45-.37.15-.72.33-1.08.52-.19.09-.37.19-.55.3-.87.49-1.68,1.07-2.45,1.69-.26.22-.51.44-.74.66-.14.12-.27.25-.4.38-.07.05-.14.12-.19.19-.77.77-1.45,1.6-2.05,2.49-.19.27-.37.56-.55.86-.19.31-.37.64-.53.97-.12.22-.23.45-.33.67-.19.42-.37.85-.53,1.28-.1.26-.19.53-.27.82-.18.55-.31,1.11-.44,1.68-.23,1.15-.36,2.32-.36,3.54,0,9.7,7.87,17.57,17.57,17.57s17.57-7.87,17.57-17.57c0-1.22-.12-2.39-.36-3.54ZM954.03,691.69c-9.7,0-17.57,7.87-17.57,17.57s7.87,17.57,17.57,17.57,17.57-7.86,17.57-17.57-7.87-17.57-17.57-17.57ZM975.32,844.67c-.03-.16-.07-.31-.1-.48-.08-.44-.19-.87-.33-1.3-.07-.22-.14-.41-.21-.63-.08-.25-.16-.49-.26-.72-.11-.29-.23-.57-.36-.85-.11-.23-.2-.46-.33-.68-.11-.23-.22-.45-.34-.67-.48-.85-1.01-1.65-1.63-2.4-.23-.3-.48-.59-.72-.86-.19-.22-.38-.41-.59-.62-.79-.79-1.67-1.52-2.6-2.15-.3-.2-.6-.4-.9-.57s-.61-.34-.93-.51c-.22-.12-.45-.23-.67-.33-.42-.19-.85-.37-1.28-.53-.26-.1-.53-.19-.82-.27-.55-.19-1.11-.33-1.68-.44-1.13-.25-2.32-.37-3.54-.37s-2.4.12-3.54.37c-.57.11-1.13.25-1.68.44-.29.08-.56.18-.82.27-.44.16-.86.34-1.28.53-.22.1-.45.21-.67.33-.31.16-.63.33-.93.51-.18.11-.34.21-.52.31-.37.25-.72.49-1.07.75-.22.15-.42.31-.63.49-.45.36-.87.75-1.28,1.16-.2.2-.4.4-.59.62-.11.12-.23.26-.34.4-.11.12-.22.26-.33.4-.26.3-.49.61-.7.93-.19.26-.37.53-.53.81-.04.05-.08.11-.12.18-.15.26-.3.52-.45.79-.16.31-.33.64-.48.97-.18.38-.34.78-.49,1.18-.04.07-.07.15-.08.23-.04.07-.07.15-.08.22-.08.25-.16.49-.23.74-.14.41-.25.85-.33,1.28-.03.16-.07.31-.1.48-.2,1.04-.3,2.12-.3,3.21,0,9.7,7.87,17.57,17.57,17.57s17.57-7.87,17.57-17.57c0-1.09-.1-2.17-.3-3.21ZM983.77,776.03c-.03-.18-.05-.35-.08-.52-.05-.3-.11-.59-.18-.89-.05-.27-.12-.55-.21-.81-.08-.3-.16-.59-.27-.87-.1-.29-.19-.59-.31-.86-.05-.14-.11-.26-.16-.4-.12-.3-.26-.59-.41-.89-.19-.38-.38-.75-.6-1.12-.04-.07-.08-.14-.12-.22-.22-.35-.44-.68-.67-1.01-.21-.3-.42-.59-.66-.88-.1-.12-.21-.25-.31-.37-.26-.31-.53-.62-.82-.9-.14-.15-.29-.29-.44-.44-.15-.15-.3-.29-.46-.42-.89-.81-1.86-1.5-2.91-2.1-.31-.18-.63-.35-.94-.51-.05-.04-.12-.07-.19-.1-.33-.16-.67-.31-1.02-.45-.33-.14-.67-.26-1.01-.37-.61-.22-1.24-.4-1.9-.52-.33-.07-.66-.14-1-.19-.87-.15-1.76-.22-2.68-.22-1.22,0-2.4.12-3.54.37-.51.11-.98.22-1.46.37-.03,0-.04.01-.07.03-.15.04-.29.08-.44.14-.23.07-.48.15-.7.25-.29.11-.56.22-.83.34-.36.14-.7.31-1.04.49-.3.15-.6.31-.89.49-.3.18-.59.35-.86.55-.25.15-.46.31-.7.49-.34.26-.67.52-.98.79s-.63.56-.93.86c-.34.34-.68.71-1,1.09-.08.11-.18.2-.26.31-.08.1-.16.21-.25.31-.25.31-.48.64-.7.97-.22.33-.44.67-.63,1.02-.14.22-.26.45-.37.68-.15.29-.29.57-.41.86-.08.18-.16.35-.23.53-.1.25-.19.49-.27.74-.05.12-.1.25-.12.37-.04.12-.08.25-.12.37-.05.16-.11.33-.15.49-.07.22-.12.42-.16.64-.3,1.28-.46,2.64-.46,4.02,0,9.7,7.86,17.57,17.57,17.57s17.56-7.87,17.56-17.57c0-.86-.07-1.71-.19-2.54Z"/>
    <g>
      <path class="cls-32" d="M883.77,570.65c0,9.7,7.86,17.56,17.56,17.56,9.71,0,17.57-7.86,17.57-17.56,0-9.71-7.86-17.57-17.57-17.57-9.7,0-17.56,7.86-17.56,17.57Z"/>
      <path class="cls-34" d="M913.7,639.95c0,9.71,7.86,17.57,17.57,17.57,9.7,0,17.57-7.86,17.57-17.57,0-9.7-7.87-17.56-17.57-17.56-9.71,0-17.57,7.86-17.57,17.56Z"/>
      <path class="cls-40" d="M936.46,709.26c0,9.71,7.87,17.57,17.57,17.57,9.7,0,17.57-7.86,17.57-17.57,0-9.7-7.87-17.57-17.57-17.57-9.7,0-17.57,7.87-17.57,17.57Z"/>
      <path class="cls-35" d="M948.84,778.57c0,9.7,7.86,17.57,17.57,17.57,9.7,0,17.56-7.87,17.56-17.57,0-9.7-7.86-17.57-17.56-17.57s-17.57,7.87-17.57,17.57Z"/>
      <path class="cls-41" d="M940.47,847.88c0,9.7,7.87,17.57,17.57,17.57,9.7,0,17.57-7.87,17.57-17.57s-7.87-17.57-17.57-17.57-17.57,7.87-17.57,17.57Z"/>
      <circle class="cls-10" cx="944.91" cy="917.19" r="17.57"/>
      <path class="cls-11" d="M892.2,986.5c0,9.7,7.87,17.57,17.57,17.57,9.7,0,17.57-7.87,17.57-17.57,0-9.7-7.87-17.57-17.57-17.57-9.7,0-17.57,7.87-17.57,17.57Z"/>
    </g>
  </g>
</svg>